<svg width="16" height="16" viewBox="0 0 16 16" fill="none" xmlns="http://www.w3.org/2000/svg">
<path d="M8 1C6.40926 1.00182 4.88419 1.63455 3.75937 2.75937C2.63455 3.88419 2.00182 5.40926 2 7C2 8.5 2.785 10.4412 4.10063 12.1875C5.42438 13.9469 6.88188 15 8 15C9.11812 15 10.5756 13.9494 11.8994 12.1875C13.215 10.4375 14 8.5 14 7C13.9982 5.40926 13.3655 3.88419 12.2406 2.75937C11.1158 1.63455 9.59074 1.00182 8 1ZM11.1006 11.5887C10.015 13.0306 8.76937 14 8 14C7.23063 14 5.985 13.0306 4.89937 11.5887C3.72812 10.0312 3 8.27313 3 7C3 5.67392 3.52678 4.40215 4.46447 3.46447C5.40215 2.52678 6.67392 2 8 2C9.32608 2 10.5979 2.52678 11.5355 3.46447C12.4732 4.40215 13 5.67392 13 7C13 8.27313 12.2719 10.0312 11.1006 11.5887ZM7.5 8.5C7.5 7.83696 7.23661 7.20107 6.76777 6.73223C6.29893 6.26339 5.66304 6 5 6C4.73478 6 4.48043 6.10536 4.29289 6.29289C4.10536 6.48043 4 6.73478 4 7C4 7.66304 4.26339 8.29893 4.73223 8.76777C5.20107 9.23661 5.83696 9.5 6.5 9.5C6.76522 9.5 7.01957 9.39464 7.20711 9.20711C7.39464 9.01957 7.5 8.76522 7.5 8.5ZM5 7C5.39782 7 5.77936 7.15804 6.06066 7.43934C6.34196 7.72064 6.5 8.10218 6.5 8.5C6.10218 8.5 5.72064 8.34196 5.43934 8.06066C5.15804 7.77936 5 7.39782 5 7ZM11 6C10.337 6 9.70107 6.26339 9.23223 6.73223C8.76339 7.20107 8.5 7.83696 8.5 8.5C8.5 8.76522 8.60536 9.01957 8.79289 9.20711C8.98043 9.39464 9.23478 9.5 9.5 9.5C9.8283 9.5 10.1534 9.43534 10.4567 9.3097C10.76 9.18406 11.0356 8.99991 11.2678 8.76777C11.4999 8.53562 11.6841 8.26002 11.8097 7.95671C11.9353 7.65339 12 7.3283 12 7C12 6.73478 11.8946 6.48043 11.7071 6.29289C11.5196 6.10536 11.2652 6 11 6ZM9.5 8.5C9.5 8.10218 9.65804 7.72064 9.93934 7.43934C10.2206 7.15804 10.6022 7 11 7C11 7.39782 10.842 7.77936 10.5607 8.06066C10.2794 8.34196 9.89782 8.5 9.5 8.5ZM9.5 11.5C9.5 11.6326 9.44732 11.7598 9.35355 11.8536C9.25979 11.9473 9.13261 12 9 12H7C6.86739 12 6.74021 11.9473 6.64645 11.8536C6.55268 11.7598 6.5 11.6326 6.5 11.5C6.5 11.3674 6.55268 11.2402 6.64645 11.1464C6.74021 11.0527 6.86739 11 7 11H9C9.13261 11 9.25979 11.0527 9.35355 11.1464C9.44732 11.2402 9.5 11.3674 9.5 11.5Z" fill="white"/>
</svg>
