<svg width="48" height="48" viewBox="0 0 48 48" fill="none" xmlns="http://www.w3.org/2000/svg">
<path d="M34.0612 25.0612L19.0612 40.0612C18.9219 40.2006 18.7564 40.3112 18.5743 40.3866C18.3922 40.462 18.1971 40.5008 18 40.5008C17.8029 40.5008 17.6077 40.462 17.4256 40.3866C17.2435 40.3112 17.0781 40.2006 16.9387 40.0612C16.7994 39.9219 16.6888 39.7564 16.6134 39.5743C16.538 39.3923 16.4991 39.1971 16.4991 39C16.4991 38.8029 16.538 38.6077 16.6134 38.4257C16.6888 38.2436 16.7994 38.0781 16.9387 37.9387L30.8794 24L16.9387 10.0612C16.6573 9.77978 16.4991 9.39804 16.4991 8.99999C16.4991 8.60195 16.6573 8.22021 16.9387 7.93874C17.2202 7.65728 17.6019 7.49916 18 7.49916C18.398 7.49916 18.7798 7.65728 19.0612 7.93874L34.0612 22.9387C34.2007 23.0781 34.3113 23.2435 34.3868 23.4256C34.4623 23.6077 34.5012 23.8029 34.5012 24C34.5012 24.1971 34.4623 24.3923 34.3868 24.5744C34.3113 24.7565 34.2007 24.9219 34.0612 25.0612Z" fill="white"/>
</svg>
