<svg width="48" height="48" viewBox="0 0 48 48" fill="none" xmlns="http://www.w3.org/2000/svg">
<path d="M31.0612 37.9388C31.2006 38.0781 31.3111 38.2436 31.3865 38.4257C31.462 38.6078 31.5008 38.8029 31.5008 39C31.5008 39.1971 31.462 39.3923 31.3865 39.5744C31.3111 39.7564 31.2006 39.9219 31.0612 40.0613C30.9218 40.2006 30.7564 40.3112 30.5743 40.3866C30.3922 40.462 30.1971 40.5008 30 40.5008C29.8029 40.5008 29.6077 40.462 29.4256 40.3866C29.2435 40.3112 29.0781 40.2006 28.9387 40.0613L13.9387 25.0613C13.7992 24.922 13.6886 24.7565 13.6131 24.5744C13.5376 24.3923 13.4988 24.1971 13.4988 24C13.4988 23.8029 13.5376 23.6077 13.6131 23.4256C13.6886 23.2435 13.7992 23.0781 13.9387 22.9388L28.9387 7.93876C29.2202 7.6573 29.6019 7.49918 30 7.49918C30.398 7.49918 30.7797 7.6573 31.0612 7.93876C31.3427 8.22022 31.5008 8.60196 31.5008 9.00001C31.5008 9.39806 31.3427 9.7798 31.0612 10.0613L17.1206 24L31.0612 37.9388Z" fill="white"/>
</svg>
