<svg width="48" height="48" viewBox="0 0 48 48" fill="none" xmlns="http://www.w3.org/2000/svg">
<path d="M39 18C39 15.0972 38.1577 12.2569 36.5753 9.82331C34.993 7.38977 32.7385 5.46763 30.0853 4.29002C27.4322 3.1124 24.4943 2.7299 21.6281 3.18891C18.7618 3.64792 16.0904 4.92871 13.9376 6.87596C11.7849 8.8232 10.2434 11.3532 9.50011 14.1592C8.75681 16.9652 8.84365 19.9266 9.75008 22.6842C10.6565 25.4418 12.3436 27.8771 14.6067 29.6949C16.8699 31.5127 19.6118 32.6347 22.5 32.925V37.5H16.5C16.1022 37.5 15.7206 37.658 15.4393 37.9393C15.158 38.2206 15 38.6022 15 39C15 39.3978 15.158 39.7794 15.4393 40.0607C15.7206 40.342 16.1022 40.5 16.5 40.5H22.5V45C22.5 45.3978 22.658 45.7794 22.9393 46.0607C23.2206 46.342 23.6022 46.5 24 46.5C24.3978 46.5 24.7794 46.342 25.0607 46.0607C25.342 45.7794 25.5 45.3978 25.5 45V40.5H31.5C31.8978 40.5 32.2794 40.342 32.5607 40.0607C32.842 39.7794 33 39.3978 33 39C33 38.6022 32.842 38.2206 32.5607 37.9393C32.2794 37.658 31.8978 37.5 31.5 37.5H25.5V32.925C29.1982 32.5487 32.6254 30.8144 35.119 28.0576C37.6126 25.3008 38.9954 21.7173 39 18ZM12 18C12 15.6266 12.7038 13.3066 14.0224 11.3332C15.3409 9.35977 17.2151 7.8217 19.4078 6.91345C21.6005 6.0052 24.0133 5.76756 26.3411 6.23058C28.6689 6.6936 30.8071 7.83649 32.4853 9.51472C34.1635 11.193 35.3064 13.3311 35.7694 15.6589C36.2324 17.9867 35.9948 20.3995 35.0866 22.5922C34.1783 24.7849 32.6402 26.6591 30.6668 27.9776C28.6935 29.2962 26.3734 30 24 30C20.8185 29.9965 17.7682 28.7311 15.5186 26.4814C13.2689 24.2318 12.0035 21.1815 12 18Z" fill="white"/>
</svg>
