<svg width="48" height="48" viewBox="0 0 48 48" fill="none" xmlns="http://www.w3.org/2000/svg">
<path d="M40.5 6H31.5C31.1022 6 30.7207 6.15804 30.4394 6.43934C30.1581 6.72064 30 7.10218 30 7.5C30 7.89782 30.1581 8.27936 30.4394 8.56066C30.7207 8.84196 31.1022 9 31.5 9H36.8794L28.9913 16.8881C26.0117 14.4526 22.2101 13.2555 18.3727 13.5442C14.5352 13.8329 10.9555 15.5855 8.37398 18.4394C5.79242 21.2933 4.40649 25.0303 4.50281 28.8774C4.59914 32.7245 6.17036 36.3874 8.89151 39.1085C11.6127 41.8297 15.2756 43.4009 19.1226 43.4972C22.9697 43.5935 26.7067 42.2076 29.5606 39.626C32.4145 37.0445 34.1671 33.4648 34.4558 29.6274C34.7446 25.7899 33.5474 21.9883 31.1119 19.0087L39 11.1225V16.5C39 16.8978 39.1581 17.2794 39.4394 17.5607C39.7207 17.842 40.1022 18 40.5 18C40.8978 18 41.2794 17.842 41.5607 17.5607C41.842 17.2794 42 16.8978 42 16.5V7.5C42 7.10218 41.842 6.72064 41.5607 6.43934C41.2794 6.15804 40.8978 6 40.5 6ZM27.9825 36.9919C26.3041 38.6696 24.1659 39.8119 21.8382 40.2745C19.5106 40.7371 17.0981 40.4991 14.9057 39.5907C12.7133 38.6823 10.8395 37.1442 9.52114 35.171C8.2028 33.1977 7.49915 30.8778 7.49915 28.5047C7.49915 26.1315 8.2028 23.8117 9.52114 21.8384C10.8395 19.8651 12.7133 18.3271 14.9057 17.4186C17.0981 16.5102 19.5106 16.2723 21.8382 16.7349C24.1659 17.1975 26.3041 18.3398 27.9825 20.0175C30.2295 22.2705 31.4914 25.3227 31.4914 28.5047C31.4914 31.6867 30.2295 34.7388 27.9825 36.9919Z" fill="white"/>
</svg>
