<svg width="48" height="48" viewBox="0 0 48 48" fill="none" xmlns="http://www.w3.org/2000/svg">
<g id="Heart">
<path id="Vector" d="M33.375 6C29.5031 6 26.1131 7.665 24 10.4794C21.8869 7.665 18.4969 6 14.625 6C11.5429 6.00347 8.58808 7.22936 6.40872 9.40872C4.22936 11.5881 3.00347 14.5429 3 17.625C3 30.75 22.4606 41.3737 23.2894 41.8125C23.5078 41.93 23.752 41.9915 24 41.9915C24.248 41.9915 24.4922 41.93 24.7106 41.8125C25.5394 41.3737 45 30.75 45 17.625C44.9965 14.5429 43.7706 11.5881 41.5913 9.40872C39.4119 7.22936 36.4571 6.00347 33.375 6ZM24 38.775C20.5763 36.78 6 27.6919 6 17.625C6.00298 15.3384 6.91264 13.1463 8.52949 11.5295C10.1463 9.91264 12.3384 9.00298 14.625 9C18.2719 9 21.3337 10.9425 22.6125 14.0625C22.7255 14.3376 22.9178 14.5729 23.1648 14.7385C23.4119 14.9041 23.7026 14.9925 24 14.9925C24.2974 14.9925 24.5881 14.9041 24.8352 14.7385C25.0822 14.5729 25.2745 14.3376 25.3875 14.0625C26.6662 10.9369 29.7281 9 33.375 9C35.6616 9.00298 37.8537 9.91264 39.4705 11.5295C41.0874 13.1463 41.997 15.3384 42 17.625C42 27.6769 27.42 36.7781 24 38.775Z" fill="#11B0C8"/>
</g>
</svg>
