<svg width="48" height="48" viewBox="0 0 48 48" fill="none" xmlns="http://www.w3.org/2000/svg">
<path d="M41.0306 19.4569L26.0306 5.30436C26.0233 5.29796 26.0164 5.29107 26.01 5.28373C25.4577 4.78148 24.7381 4.50317 23.9916 4.50317C23.2451 4.50317 22.5254 4.78148 21.9731 5.28373L21.9525 5.30436L6.96937 19.4569C6.66375 19.7379 6.41978 20.0793 6.25292 20.4595C6.08606 20.8397 5.99994 21.2504 6 21.6656V39C6 39.7956 6.31607 40.5587 6.87868 41.1213C7.44129 41.6839 8.20435 42 9 42H39C39.7957 42 40.5587 41.6839 41.1213 41.1213C41.6839 40.5587 42 39.7956 42 39V21.6656C42.0001 21.2504 41.9139 20.8397 41.7471 20.4595C41.5802 20.0793 41.3363 19.7379 41.0306 19.4569ZM39 39H9V21.6656L9.02063 21.6469L24 7.49998L38.9812 21.6431L39.0019 21.6619L39 39Z" fill="white"/>
</svg>
