<svg width="48" height="48" viewBox="0 0 48 48" fill="none" xmlns="http://www.w3.org/2000/svg">
<path d="M35.7431 12.2569C34.6199 11.1339 33.0972 10.5021 31.5089 10.5C29.9206 10.4978 28.3962 11.1256 27.27 12.2456L25.0856 14.535C24.8063 14.7961 24.4377 14.9407 24.0553 14.9391C23.6729 14.9376 23.3056 14.79 23.0283 14.5267C22.7511 14.2633 22.5849 13.904 22.5637 13.5222C22.5425 13.1404 22.6679 12.7649 22.9144 12.4725L25.1119 10.1681C25.1195 10.1595 25.1277 10.1514 25.1362 10.1437C26.8287 8.47863 29.1106 7.54973 31.4848 7.5594C33.8591 7.56907 36.1333 8.51652 37.8121 10.1954C39.491 11.8742 40.4384 14.1484 40.4481 16.5227C40.4578 18.8969 39.5289 21.1788 37.8638 22.8713C37.8561 22.8798 37.848 22.888 37.8394 22.8956L35.535 25.0931C35.2426 25.3396 34.8671 25.465 34.4853 25.4438C34.1035 25.4226 33.7442 25.2564 33.4808 24.9792C33.2175 24.702 33.0699 24.3346 33.0684 23.9522C33.0668 23.5698 33.2114 23.2012 33.4725 22.9219L35.7619 20.7375C36.8832 19.61 37.5111 18.0835 37.5075 16.4933C37.504 14.9031 36.8694 13.3794 35.7431 12.2569ZM22.9144 33.465L20.73 35.7544C19.5994 36.8524 18.082 37.4615 16.506 37.45C14.9299 37.4385 13.4217 36.8073 12.3072 35.6928C11.1927 34.5783 10.5615 33.0701 10.55 31.494C10.5385 29.918 11.1476 28.4006 12.2456 27.27L14.535 25.0856C14.7961 24.8063 14.9407 24.4377 14.9391 24.0553C14.9376 23.6729 14.79 23.3056 14.5267 23.0283C14.2633 22.7511 13.904 22.5849 13.5222 22.5637C13.1404 22.5425 12.7649 22.6679 12.4725 22.9144L10.1606 25.1119C10.152 25.1195 10.1439 25.1277 10.1363 25.1362C8.47113 26.8287 7.54223 29.1106 7.5519 31.4848C7.56157 33.8591 8.50902 36.1333 10.1879 37.8121C11.8667 39.491 14.1409 40.4384 16.5152 40.4481C18.8894 40.4578 21.1713 39.5289 22.8638 37.8638C22.8723 37.8561 22.8805 37.848 22.8881 37.8394L25.0856 35.535C25.235 35.3954 25.3543 35.2267 25.4361 35.0393C25.5179 34.8518 25.5605 34.6497 25.5614 34.4452C25.5622 34.2407 25.5212 34.0382 25.4409 33.8502C25.3606 33.6621 25.2427 33.4924 25.0944 33.3516C24.9462 33.2108 24.7707 33.1017 24.5788 33.0312C24.3868 32.9607 24.1825 32.9301 23.9783 32.9414C23.7741 32.9528 23.5744 33.0057 23.3915 33.097C23.2085 33.1884 23.0462 33.3161 22.9144 33.4725V33.465ZM39 28.5H34.5C34.1022 28.5 33.7206 28.658 33.4393 28.9393C33.158 29.2206 33 29.6022 33 30C33 30.3978 33.158 30.7794 33.4393 31.0607C33.7206 31.342 34.1022 31.5 34.5 31.5H39C39.3978 31.5 39.7794 31.342 40.0607 31.0607C40.342 30.7794 40.5 30.3978 40.5 30C40.5 29.6022 40.342 29.2206 40.0607 28.9393C39.7794 28.658 39.3978 28.5 39 28.5ZM9 19.5H13.5C13.8978 19.5 14.2794 19.342 14.5607 19.0607C14.842 18.7794 15 18.3978 15 18C15 17.6022 14.842 17.2206 14.5607 16.9393C14.2794 16.658 13.8978 16.5 13.5 16.5H9C8.60218 16.5 8.22064 16.658 7.93934 16.9393C7.65804 17.2206 7.5 17.6022 7.5 18C7.5 18.3978 7.65804 18.7794 7.93934 19.0607C8.22064 19.342 8.60218 19.5 9 19.5ZM30 33C29.6022 33 29.2206 33.158 28.9393 33.4393C28.658 33.7206 28.5 34.1022 28.5 34.5V39C28.5 39.3978 28.658 39.7794 28.9393 40.0607C29.2206 40.342 29.6022 40.5 30 40.5C30.3978 40.5 30.7794 40.342 31.0607 40.0607C31.342 39.7794 31.5 39.3978 31.5 39V34.5C31.5 34.1022 31.342 33.7206 31.0607 33.4393C30.7794 33.158 30.3978 33 30 33ZM18 15C18.3978 15 18.7794 14.842 19.0607 14.5607C19.342 14.2794 19.5 13.8978 19.5 13.5V9C19.5 8.60218 19.342 8.22064 19.0607 7.93934C18.7794 7.65804 18.3978 7.5 18 7.5C17.6022 7.5 17.2206 7.65804 16.9393 7.93934C16.658 8.22064 16.5 8.60218 16.5 9V13.5C16.5 13.8978 16.658 14.2794 16.9393 14.5607C17.2206 14.842 17.6022 15 18 15Z" fill="white"/>
</svg>
