<svg width="220" height="64" viewBox="0 0 220 64" fill="none" xmlns="http://www.w3.org/2000/svg">
<g id="LogoC" clip-path="url(#clip0_7_204)">
<g id="Group">
<path id="Vector" d="M150.085 55.0878C150.172 53.9411 149.853 52.9335 149.221 51.9803C148.577 51.0095 148.254 49.9609 148.74 48.8045L148.817 48.5414C149.102 47.4995 148.972 46.5369 148.197 45.7378C147.616 45.1364 147.457 44.4465 147.627 43.6529C147.851 42.6099 147.778 41.6429 147.146 40.7078C146.599 39.8963 146.504 39.0005 146.939 38.0405C147.306 37.2346 147.546 36.3644 147.779 35.5068C147.96 34.8385 147.961 34.131 147.708 33.4806C147.502 32.9502 147.556 32.4687 147.683 31.9465C147.819 31.3958 147.894 30.8271 147.968 30.2639C148.026 29.8304 147.881 29.4471 147.556 29.1497C147.128 28.7599 146.98 28.2744 147.051 27.7221C147.136 27.0879 147.259 26.4607 146.927 25.8499C146.867 25.7436 146.902 25.58 146.911 25.4435C146.994 24.3418 146.714 23.3163 146.279 22.318C146.03 21.7426 145.924 21.1372 145.99 20.5114C146.116 19.2965 146.039 18.0843 145.827 16.8939C145.598 15.6135 145.237 14.3589 144.966 13.0853C144.871 12.6448 144.81 12.1814 144.837 11.7354C144.893 10.8259 145.003 9.91785 145.125 9.01244C145.273 7.9214 145.542 6.86334 146.015 5.85703C146.469 4.88348 146.89 3.89355 147.311 2.90494C147.461 2.54766 147.59 2.17816 147.681 1.80167C147.791 1.34896 147.785 0.892108 147.509 0.480457C147.143 -0.066372 146.661 -0.168575 146.181 0.289591C145.79 0.667174 145.42 1.09826 145.158 1.56997C144.643 2.49722 144.05 3.35612 143.336 4.14033C142.838 4.68716 142.626 5.33903 142.596 6.08349C142.54 7.53028 142.208 8.88577 141.154 9.98053C140.853 10.2928 140.59 10.6446 140.348 11.0045C140.103 11.3618 139.847 11.7313 139.708 12.1336C139.378 13.0811 139.019 14.0357 138.85 15.0201C138.627 16.3304 138.281 17.5988 137.932 18.8779C137.641 19.9401 137.145 20.8127 136.396 21.5792C135.922 22.0647 135.59 22.6402 135.383 23.2754C135.135 24.0363 134.918 24.8054 134.711 25.5787C134.618 25.9305 134.553 26.2946 134.519 26.6558C134.36 28.3847 134.234 30.1167 134.057 31.8415C134.015 32.2505 134.052 32.7047 133.767 33.0756L133.645 32.9694C133.19 32.3461 133.135 31.6248 133.065 30.8885C132.903 29.1621 132.726 27.44 132.796 25.7014C132.817 25.1764 132.796 24.6501 132.812 24.1251C132.826 23.6956 132.645 23.3765 132.319 23.1202C132.194 23.0234 132.065 22.9334 131.921 22.8269C131.947 22.5037 131.973 22.1859 131.998 21.8697C132.057 21.0979 131.951 20.3808 131.449 19.733C131.27 19.504 131.192 19.1412 131.195 18.8412C131.201 18.0668 131.274 17.2909 131.336 16.5176C131.384 15.8766 131.152 15.3558 130.702 14.9155C130.587 14.805 130.438 14.7151 130.355 14.5856C130.227 14.3838 130.04 14.1505 130.053 13.9407C130.092 13.1921 130.158 12.438 130.305 11.7044C130.42 11.1262 130.684 10.5793 130.85 10.0094C131.149 8.97837 131.462 7.95175 131.697 6.90592C131.818 6.37132 131.551 5.99767 131.098 5.79479C130.665 5.59694 130.303 5.64454 129.956 6.11516C129.36 6.92252 128.802 7.76373 128.295 8.62677C128.071 9.00982 127.979 9.4789 127.879 9.92091C127.713 10.6628 127.535 11.4004 126.978 11.9621C126.376 12.5703 126.047 13.3106 125.834 14.1193C125.799 14.253 125.73 14.3783 125.651 14.572C125.275 13.6094 125.122 13.5153 124.308 13.7087C124.279 13.5779 124.268 13.4401 124.217 13.3187C123.991 12.7747 123.561 12.6902 123.155 13.125C122.985 13.3052 122.812 13.5122 122.728 13.74C122.414 14.5978 122.098 15.4569 121.852 16.3335C121.608 17.2129 121.485 18.1253 121.248 19.006C120.724 20.9451 120.339 22.9249 119.498 24.7713C119.395 24.9963 119.357 25.2527 119.31 25.4981C119.066 26.8196 119.104 28.134 119.384 29.4471C119.72 31.0097 119.688 32.5805 119.442 34.1515C119.286 35.1672 118.687 35.9512 118.041 36.7027C117.018 37.8902 116.571 39.2564 116.699 40.8205C116.76 41.5813 116.922 42.3044 117.231 43.0039C117.766 44.2117 117.963 45.4484 117.479 46.729C117.398 46.942 117.339 47.1684 117.312 47.3931C117.239 47.9605 117.217 48.5169 117.476 49.0718C117.623 49.3896 117.689 49.7713 117.691 50.1257C117.701 51.5208 117.668 52.9145 117.665 54.3093C117.664 54.5561 117.71 54.8098 117.778 55.0485C117.872 55.3949 118.075 55.6786 118.447 55.7642C118.85 55.857 119.097 55.5951 119.305 55.3132C119.678 54.8072 119.941 54.2479 120.004 53.6192C120.12 52.4889 120.493 51.4446 120.937 50.4094C121.137 49.9379 121.219 49.3964 121.253 48.881C121.319 47.8692 121.096 46.8821 120.884 45.8974C120.832 45.6561 120.794 45.3927 120.836 45.1543C121.046 43.9803 121.497 42.8934 122.395 42.0919C123.134 41.4278 123.441 40.6777 123.314 39.7207C123.285 39.4929 123.303 39.2584 123.255 39.0361C123.103 38.3475 123.193 37.6834 123.348 37.0042C123.559 36.0702 123.798 35.1307 123.876 34.1803C124.006 32.6023 124.278 31.059 124.651 29.5262C124.911 28.4624 124.915 27.407 124.534 26.3557C124.164 25.333 124.197 24.2968 124.555 23.2619C124.733 22.745 124.831 22.2023 125.003 21.6828C125.192 21.1073 125.324 20.4965 125.861 19.9115C125.905 20.243 125.965 20.457 125.956 20.6655C125.919 21.3502 125.871 22.0333 125.802 22.7124C125.716 23.5947 125.905 24.3514 126.692 24.8683C127.042 25.0959 127.221 25.4247 127.289 25.8283C127.358 26.2334 127.563 26.6151 127.912 26.7748C128.74 27.1552 128.879 27.8628 128.956 28.6306L128.976 28.835C129.139 30.2012 129.381 31.5336 130.063 32.7716C130.339 33.2708 130.376 33.9047 130.498 34.4815C130.58 34.8593 130.546 35.2753 130.691 35.623C130.978 36.3142 130.93 37.0003 130.857 37.7118C130.708 39.2269 131.119 40.1022 132.468 40.3682C132.801 40.4335 132.988 40.6355 133.019 40.9777C133.054 41.3173 133.099 41.6567 133.143 41.9963C133.258 42.8827 133.397 43.7662 133.953 44.5107C134.278 44.9457 134.693 45.1969 135.263 45.0658C135.731 44.9566 136.119 44.4808 136.171 43.9014C136.221 43.3777 136.263 42.8486 136.233 42.3264C136.151 40.9028 136.571 39.6253 137.252 38.398C137.447 38.0475 137.6 37.6439 137.655 37.2482C137.754 36.5269 137.788 35.7935 137.81 35.0637C137.85 33.7466 138.088 32.5154 139.153 31.5949L139.292 31.4421C140.249 30.1385 140.79 28.73 140.454 27.0827C140.198 25.8174 140.419 24.5846 140.757 23.3656C140.823 23.1269 140.922 22.8965 141.007 22.662C141.124 22.943 141.124 23.194 141.124 23.4447C141.125 24.2193 141.364 24.8779 142.034 25.3402C142.201 25.456 142.343 25.6143 142.478 25.7696C142.81 26.1528 142.987 26.585 142.841 27.0978C142.707 27.5817 142.571 28.0645 142.423 28.5459C142.135 29.4827 141.714 30.4017 141.576 31.3588C141.38 32.717 141.447 34.0982 141.979 35.4114C142.087 35.6828 142.197 35.973 142.215 36.2609C142.251 36.9224 142.27 37.5891 142.227 38.249C142.081 40.4743 142.691 42.4487 144.137 44.1589C144.513 44.6007 144.545 45.0656 144.406 45.6262C144.215 46.3951 144.088 47.1874 144.027 47.9771C143.96 48.8253 144.313 49.4907 145.162 49.8152L145.28 49.9382C145.28 50.369 145.285 50.8257 145.278 51.281C145.271 51.8863 145.472 52.4087 145.933 52.8055C146.295 53.1193 146.667 53.4369 147.076 53.6823C147.495 53.9346 147.621 54.2578 147.56 54.7159C147.503 55.1455 147.481 55.579 147.452 56.0127C147.429 56.3765 147.521 56.6971 147.874 56.8812C148.202 57.0515 148.442 56.8539 148.687 56.6779L148.82 56.6698L148.908 56.7654C149.309 57.1677 149.569 57.2356 149.924 57.0338C150.277 56.8321 150.351 56.5377 150.222 56.0249C150.145 55.7194 150.062 55.3949 150.085 55.0878Z" fill="#BFDE42"/>
<path id="Vector_2" d="M40.3336 57.7252C40.1992 56.8786 39.8512 56.1149 39.2423 55.4794C38.5103 54.7092 38.0632 53.8188 37.9947 52.7358C37.9152 51.4922 37.1983 50.6726 36.0632 50.2362C35.6901 50.0919 35.4255 49.8969 35.2475 49.5586C35.0349 49.1548 34.7923 48.7624 34.6155 48.3437C34.3907 47.8133 33.9985 47.4562 33.4707 47.3401C32.855 47.2023 32.5836 46.8301 32.4479 46.2833C32.3972 46.0828 32.3287 45.8865 32.2984 45.6832C32.0916 44.3729 31.3716 43.4129 30.2419 42.7501C29.8814 42.5374 29.7018 42.2415 29.5318 41.8746C29.1862 41.1314 28.8709 40.3392 28.3609 39.7174C27.6341 38.8323 26.7198 38.1505 25.4283 38.6578L25.2652 38.6128C25.1091 38.287 24.9677 37.9243 24.7703 37.5941C24.2877 36.7937 23.9724 36.723 23.1635 37.1866L23.0526 37.1934C22.9825 37.0488 22.9072 36.8892 22.8277 36.7297C22.5509 36.179 22.3025 35.6101 21.9875 35.0812C21.7049 34.6064 21.3637 34.1758 20.6959 34.207C20.526 34.2151 20.349 34.057 20.0489 33.9168C20.3848 33.6846 20.5587 33.5307 20.759 33.4326C21.3828 33.1229 21.8544 32.6728 22.0902 32.0184C22.1971 31.7238 22.3961 31.5602 22.6633 31.4783C22.9909 31.3787 23.3281 31.2903 23.6683 31.2601C24.5841 31.1782 25.1914 30.6356 25.6369 29.921C26.0963 29.1846 26.4348 28.3775 26.5775 27.5075C26.6502 27.0574 26.7297 26.6483 27.1959 26.3745C27.4165 26.245 27.5538 25.9026 27.6346 25.63C27.7334 25.2837 27.776 24.9085 27.7718 24.5486C27.765 23.9227 27.9226 23.3992 28.3749 22.9328C29.2032 22.0861 29.4374 21.0387 29.2442 19.8892C29.0879 18.9606 28.9893 18.0511 29.3362 17.1225C29.7488 16.0234 29.4855 15.0457 28.5409 14.3054C28.2518 14.0789 28.1446 13.8295 28.194 13.4818C28.2241 13.2785 28.2447 13.0726 28.2542 12.8669C28.2871 12.1619 28.3282 11.457 28.3323 10.7508C28.3323 10.5571 28.2636 10.328 28.1472 10.1738C27.3261 9.08974 26.6665 8.75845 25.508 9.16071C25.2694 9.24392 25.0294 9.33542 24.7828 9.37342C24.3838 9.43871 24.2426 9.31074 24.2001 8.9111C24.17 8.61651 24.1658 8.31667 24.1054 8.02753C23.9847 7.42086 23.6325 7.12626 23.0058 7.09351C22.7781 7.08106 22.5438 7.0922 22.3203 7.13587C21.628 7.27083 21.033 7.1564 20.4709 6.68164C20.0761 6.34489 19.588 6.11035 19.1205 5.86773C18.3075 5.44494 17.4698 5.06867 16.6622 4.63627C16.1634 4.36635 15.6465 4.2244 15.0855 4.20409C14.8113 4.19317 14.5289 4.23139 14.2602 4.18356C13.3691 4.02414 12.6492 4.34735 11.9665 4.8778C11.2057 5.46831 10.4311 6.04352 9.6358 6.58773C8.59109 7.30359 7.46009 7.66217 6.18637 7.25729L5.91762 7.2027C5.39944 7.04044 4.93175 7.17409 4.45617 7.39487C3.68987 7.75215 3.05224 8.26207 2.50793 8.89341C2.18845 9.26576 1.86349 9.40749 1.3699 9.18255C0.931201 8.9847 0.677599 9.06659 0.469228 9.40901C-0.0296335 10.2286 -0.351961 11.5826 0.683088 12.5587C0.8504 12.7155 1.01771 12.8726 1.19468 13.0182C1.9118 13.6087 2.00885 14.3504 1.74427 15.1889C1.62921 15.5584 1.50164 15.9295 1.43314 16.3084C1.15472 17.8696 1.27702 19.3205 2.61508 20.4347C2.89459 20.6666 3.13326 20.9571 3.35678 21.246C3.75706 21.7629 4.05875 22.3124 3.8765 23.0147C3.73927 23.5436 3.68043 24.0917 3.54605 24.6196C3.4321 25.0655 3.4321 25.4675 3.6969 25.8659C3.79153 26.0076 3.85872 26.2107 3.84225 26.3745C3.79856 26.8025 3.89034 27.1884 4.07543 27.5675C4.27436 27.9724 4.29061 28.3749 4.16194 28.8247C3.95072 29.5583 4.03174 30.2728 4.55124 30.8904C4.77322 31.1536 4.97347 31.4318 5.19546 31.6949C5.52591 32.085 5.68905 32.4981 5.53403 33.0218C5.3586 33.6136 5.45038 34.1782 5.71913 34.7466C6.28957 35.956 6.65976 37.2379 6.66525 38.5783C6.66657 39.3381 6.73925 40.1328 6.28145 40.8379C5.89478 41.4313 6.11545 42.0297 6.51024 42.4821C7.05872 43.1122 7.31518 43.8525 7.5892 44.6055C7.71809 44.9614 7.68801 45.2643 7.48644 45.5792C6.88175 46.5268 6.84881 47.544 7.09429 48.6132C7.26709 49.3645 7.60699 50.0327 8.01824 50.6654C8.31158 51.1165 8.53225 51.583 8.61459 52.1093C8.68331 52.5566 8.86138 52.9315 9.21796 53.2287C9.33038 53.3229 9.43995 53.4812 9.45224 53.6216C9.52624 54.3659 9.70453 55.0998 9.48935 55.8635C9.27 56.6392 9.45093 57.0511 10.1626 57.4723C10.6397 57.7545 10.8151 58.1557 10.8426 58.6573C10.8632 59.0445 10.8371 59.436 10.8564 59.8232C10.8948 60.5076 11.1045 61.1254 11.653 61.5838C11.9011 61.7911 12.1685 62.0038 12.5194 61.8564C12.8771 61.7092 13.0227 61.3901 13.0295 61.0274C13.0389 60.5952 13.0185 60.1587 12.9897 59.7265C12.9403 58.9726 12.9678 58.2568 13.7466 57.8311L13.848 57.7396C14.6653 56.934 14.7502 56.0882 14.1826 55.0874C13.7659 54.351 13.5753 53.5696 13.9481 52.7313C14.0948 52.4011 14.2171 52.037 14.243 51.68C14.2663 51.3308 14.2347 50.934 14.0827 50.6287C13.7879 50.0397 13.4001 49.4942 13.0339 48.9406C12.4595 48.0734 12.1345 47.1887 12.7528 46.2012L12.8378 46.0145C13.4245 44.9496 13.4765 43.8859 12.8132 42.832C12.6103 42.5099 12.5842 42.2006 12.8119 41.8761C13.2354 41.2789 13.1518 40.6816 12.8213 40.0705C12.6252 39.7107 12.4553 39.3315 12.3181 38.947C12.0548 38.2106 12.2935 37.7631 13.175 37.4524C13.5246 37.8313 13.9016 38.2608 14.2992 38.6714C14.8901 39.2793 15.625 39.5139 16.4367 39.2837C17.0482 39.1105 17.4101 39.3628 17.7076 39.81C18.0242 40.2874 18.293 40.7945 18.6179 41.2636C18.877 41.6357 19.1594 42.0026 19.4885 42.3136C19.8326 42.6422 20.1014 42.5985 20.4454 42.2683C21.0844 41.6497 21.2214 41.6385 21.8316 42.2699C22.1662 42.6204 22.5267 42.8698 23.0313 42.8102C23.4083 42.7636 23.6483 42.9204 23.7976 43.2491C24.1171 43.9553 24.4598 44.6522 24.7531 45.3681C25.1207 46.268 25.728 46.5517 26.6041 46.1835C26.7301 46.1304 26.8538 46.0691 26.9824 46.0171C27.4773 45.8182 27.5281 45.8083 27.812 46.2855C28.1615 46.8732 28.481 47.4816 28.7743 48.1005C29.1678 48.9257 29.8149 49.4669 30.6883 49.6195C31.2201 49.7137 31.4999 49.962 31.7137 50.3913C31.8248 50.6164 31.9592 50.832 32.0703 51.0569C32.5858 52.0973 33.1699 53.0682 34.3749 53.4543L34.6052 53.6015C35.1989 54.0105 35.7597 54.4344 35.7995 55.2527C35.8405 56.0657 36.1749 56.7991 36.4795 57.5409C36.6878 58.0469 36.9908 58.4546 37.4818 58.7165C37.8807 58.9305 38.1521 59.2495 38.3111 59.6806C38.4633 60.0868 38.647 60.4836 38.8403 60.8708C39.1103 61.4082 39.6011 61.7424 39.9454 61.6522C40.3033 61.5581 40.4923 61.1667 40.4745 60.4945C40.4677 60.1999 40.3156 59.8728 40.4018 59.6175C40.623 58.9646 40.4324 58.347 40.3336 57.7252ZM19.4163 28.6439C19.2738 28.7339 19.0926 28.7708 18.924 28.8077C18.5497 28.8948 18.159 28.9317 17.7957 29.0518C17.3844 29.1883 16.9771 29.36 16.5988 29.5727C16.3081 29.7378 16.027 29.9573 15.8173 30.2121C15.5156 30.5816 15.1606 30.838 14.6751 31.0317C14.5105 30.8941 14.353 30.7316 14.1679 30.6076C13.3562 30.0634 12.8654 30.0241 12.2171 30.508C12.0401 30.6404 11.833 30.729 11.4835 30.9254C11.5493 30.4945 11.5671 30.2136 11.6398 29.9477C11.707 29.7077 11.844 29.4882 11.9332 29.2536C12.2074 28.5336 12.1237 28.2323 11.4628 27.8149C11.1915 27.6446 11.0885 27.4481 11.0955 27.1456C11.1065 26.6887 11.0997 26.2306 11.0968 25.7724C11.0942 25.0974 10.8239 24.5929 10.1907 24.2887C9.76557 24.0841 9.72868 23.9369 9.83298 23.4678C9.89863 23.1815 9.95352 22.8869 9.98646 22.5938C10.103 21.6065 9.60682 20.9193 8.87741 20.3342C8.7527 20.2347 8.62513 20.0451 8.6293 19.8992C8.64577 19.1998 8.41127 18.5003 8.68705 17.798C8.86116 17.352 8.57726 16.9947 8.27294 16.7069C7.79581 16.2597 7.7396 15.717 7.85751 15.1306C7.95478 14.6371 8.18248 14.4884 8.68024 14.5565C8.81593 14.577 8.95865 14.5797 9.08864 14.6179C10.2185 14.9575 11.1082 14.5307 11.8952 13.7616C12.0254 13.6334 12.1624 13.5091 12.29 13.3783C12.7219 12.9337 13.2552 12.7769 13.8586 12.8398C14.2479 12.8793 14.6317 12.9719 15.0199 12.9924C15.5216 13.0197 16.0235 13.0007 16.5828 13.0007C17.6795 14.9819 18.1498 15.2193 19.839 14.6083C20.2447 15.016 20.7012 15.3857 20.4037 16.1055C20.268 16.437 20.3914 16.7901 20.6285 17.0668C20.9548 17.4501 21.2811 17.8346 21.639 18.1878C21.8816 18.4291 22.1778 18.6173 22.4562 18.8342C22.2779 19.1272 22.193 19.2827 22.0928 19.426C21.6858 20.011 21.6047 20.4201 22.0476 20.9245C22.6591 21.6186 22.3383 22.3495 22.3025 23.0791L22.2162 23.259C21.7804 23.7473 21.336 24.2313 20.9015 24.7209C20.4711 25.205 20.3422 25.8104 20.2434 26.4199C20.1859 26.7798 20.1655 27.1469 20.1077 27.5081C20.0317 27.9757 19.833 28.3847 19.4163 28.6439Z" fill="#BFDE42"/>
<path id="Vector_3" d="M219.116 28.1871C218.794 28.0318 218.486 28.1052 218.184 28.2349C217.406 28.569 216.618 28.8839 215.863 29.2617C215.375 29.5043 214.859 29.7745 214.492 30.159C213.342 31.3671 211.686 31.8061 210.452 32.874L210.328 32.9338C209.223 33.3769 208.138 33.8855 207.005 34.2415C206.016 34.5511 205 34.7376 204.334 35.6787C204.318 35.4334 204.339 35.2342 204.408 35.0515C204.611 34.5129 204.518 34.0166 204.223 33.5472C204.005 33.1983 203.757 32.867 203.54 32.5165C203.436 32.3488 203.307 32.1524 203.31 31.9723C203.321 31.5237 203.121 31.1979 202.869 30.8542C202.707 30.6292 202.574 30.3252 202.566 30.0538C202.523 28.6398 202.53 27.2255 202.502 25.813C202.488 25.1013 202.18 24.5488 201.552 24.1699C201.37 24.0594 201.166 23.8685 201.112 23.6777C200.731 22.2962 199.895 21.0567 199.832 19.5773C199.823 19.4205 199.777 19.2596 199.721 19.1124C199.268 17.9397 198.834 16.7602 198.341 15.6054C198.139 15.128 197.823 14.6904 197.515 14.2663C197.397 14.1079 197.106 13.9186 196.972 13.9662C196.774 14.033 196.555 14.284 196.515 14.4886C196.444 14.8609 196.486 15.2562 196.501 15.6436C196.54 16.8259 196.588 18.0109 196.634 19.2135C195.886 19.3799 195.705 19.8763 195.747 20.4707C195.805 21.2659 195.898 22.0566 195.989 22.8474C196.041 23.3001 196.157 23.7476 196.171 24.2C196.196 25.0904 196.18 25.9836 196.165 26.8739C196.149 27.8721 196.312 28.8376 196.744 29.7376C197.103 30.4927 197.327 31.2728 197.364 32.1046C197.384 32.537 197.408 32.972 197.394 33.4044C197.382 33.8325 197.538 34.1692 197.868 34.419C198.099 34.5922 198.362 34.7215 198.744 34.9508C198.446 36.0292 198.17 37.1353 197.83 38.2232C197.505 39.2678 197.065 40.2699 197.365 41.421C197.502 41.9406 197.292 42.1535 196.771 42.3319C196.447 42.4439 196.107 42.5162 195.786 42.64C194.954 42.963 194.106 43.2591 193.306 43.652C192.616 43.9916 192.576 44.4264 193.064 45.025L193.17 45.1763L193.09 45.3045C192.935 45.3999 192.776 45.4912 192.613 45.5744C191.573 46.1103 190.732 46.8821 189.99 47.7657C189.487 48.3656 189.479 48.7694 189.888 49.3815C190.363 50.0919 190.352 50.3293 189.723 50.8949C188.958 51.585 188.174 52.2547 187.387 52.9186C187.03 53.22 186.729 53.5432 186.564 53.9933C186.509 54.1444 186.377 54.3259 186.235 54.3766C185.402 54.6777 184.881 55.2927 184.475 56.0332C184.114 56.6932 183.632 57.2304 182.957 57.5783C182.592 57.7648 182.195 57.8919 181.837 58.091C180.237 58.9814 178.923 60.2358 177.615 61.4849C177.315 61.7714 177.138 62.2036 176.964 62.5949C176.782 62.9998 176.694 63.4335 177.116 63.7812C177.471 64.0729 177.895 64.0745 178.398 63.7799L178.679 63.5836C179.611 62.805 180.529 62.0101 181.476 61.2504C181.827 60.968 182.222 60.6926 182.643 60.5537C183.465 60.281 184.317 60.0859 185.166 59.8964C186.085 59.6891 186.884 59.3155 187.551 58.6199C188.436 57.6927 189.374 56.8146 190.294 55.9188C190.441 55.777 190.599 55.6338 190.773 55.5303C191.368 55.173 191.802 54.6657 192.052 54.0424C192.493 52.9352 193.228 52.0353 193.989 51.1476C194.33 50.7479 194.709 50.3758 195.027 49.9569C195.228 49.6925 195.413 49.3832 195.493 49.0638C195.745 48.0764 196.313 47.354 197.157 46.8031C198.328 46.0368 199.477 45.2445 200.642 44.4688C201.152 44.1305 201.525 43.6874 201.802 43.1419C201.976 42.7997 202.198 42.4725 202.445 42.1766C203.154 41.3243 204.063 40.798 205.137 40.4842C206.859 39.981 208.083 38.8548 208.857 37.258C209.06 36.8409 209.369 36.5585 209.742 36.3323C209.994 36.1768 210.269 36.0512 210.548 35.9477C211.357 35.6448 212.045 35.1663 212.692 34.6031C213.071 34.2731 213.471 33.9473 213.911 33.7141C215.244 33.0133 216.42 32.105 217.51 31.0824C218.145 30.4879 218.751 29.8594 219.342 29.2224C219.721 28.8171 219.612 28.4257 219.116 28.1871Z" fill="#BFDE42"/>
<path id="Vector_4" d="M107.137 40.5276C106.755 39.6167 106.414 38.7043 106.476 37.6858C106.519 36.9835 106.458 36.2759 106.484 35.5723C106.505 35.0036 106.527 34.4254 106.654 33.8746C106.881 32.8982 107.178 31.9356 107.462 30.9727C107.595 30.5242 107.566 30.0988 107.273 29.7389C106.856 29.2248 106.811 28.6494 106.952 28.0549C107.128 27.324 107.363 26.6055 107.558 25.8785C107.628 25.6182 107.707 25.3442 107.694 25.0795C107.673 24.6283 107.494 24.2107 107.044 24.0269C106.564 23.829 106.135 24.0131 105.806 24.38C105.58 24.6324 105.344 24.9091 105.222 25.2188C105.005 25.7669 104.85 26.3437 104.708 26.9178C104.429 28.0427 104.177 29.1759 103.912 30.3036L103.821 30.5613C103.281 31.3903 103.093 32.323 102.967 33.2817C102.902 33.7792 102.637 34.1067 102.167 34.3834C101.487 34.7859 100.854 35.2971 100.288 35.8492C99.7501 36.3718 99.3197 37.0029 98.8455 37.588C98.8591 37.1886 98.8373 36.7832 98.9072 36.3963C99.1511 35.0517 99.4337 33.7126 99.6954 32.3682C99.8256 31.6973 99.967 31.0236 100.052 30.346C100.094 29.9929 100.089 29.6057 99.9877 29.2689C99.8614 28.8529 99.6065 28.467 99.0923 28.4358C98.6028 28.403 98.2684 28.6688 98.0324 29.0713C97.9529 29.2091 97.8829 29.355 97.8225 29.5022C97.2193 30.99 96.6201 32.4789 95.9785 34.0677C95.7647 33.0967 95.3657 32.3916 94.2703 32.6414C93.8865 32.0072 93.7919 31.3486 93.6617 30.7037C93.5576 30.1922 93.3121 29.7668 92.9542 29.3947C92.6773 29.1069 92.3264 29.1069 91.9945 29.2283C91.6559 29.3539 91.4282 29.5952 91.4282 30.0042C91.4282 30.3438 91.3748 30.6832 91.35 31.0241C91.3087 31.5899 91.2402 32.1572 91.2376 32.7231C91.2363 33.3149 91.2719 33.9109 91.3404 34.4998C91.4431 35.3808 90.9017 35.9591 90.4382 36.6601C90.2094 36.1962 89.9804 35.8228 89.835 35.4177C89.7362 35.1465 89.7801 34.8289 89.7171 34.5411C89.617 34.0965 89.4661 33.6641 89.3647 33.2197C89.2496 32.7111 89.1563 32.197 89.0685 31.6855C89.0261 31.4375 89.0384 31.1826 88.9932 30.9369C88.7738 29.7507 88.4324 28.5863 88.4282 27.3631C88.4269 26.9811 88.372 26.5872 88.2734 26.2177C88.1608 25.8019 87.8497 25.5822 87.5315 25.6545C87.1244 25.7486 86.7158 25.8849 86.4964 26.2734C86.2745 26.6689 86.0674 27.0792 85.9111 27.5046C85.7464 27.9534 85.6491 28.4264 85.526 28.89C85.441 29.2145 85.2585 29.415 84.8967 29.3973C84.2344 29.3674 83.9014 29.7804 83.6655 30.3108C83.4998 30.6873 83.3819 31.0854 83.1897 31.4482C82.6839 32.4121 82.5563 33.3926 82.9746 34.4195C83.1171 34.7698 83.15 35.127 83.0172 35.4871C82.5605 36.7265 82.3411 38.0547 81.6009 39.1907C81.4543 39.4156 81.3254 39.6882 81.3034 39.9502C81.265 40.3933 81.1609 40.943 81.3651 41.2756C81.734 41.8661 81.804 42.4524 81.786 43.096C81.7805 43.231 81.7999 43.3727 81.8315 43.5037C81.9384 43.9237 82.2702 44.2235 82.6333 44.2427C83.0336 44.2617 83.2804 44.0573 83.4299 43.5417C83.5408 43.1655 83.6739 42.8178 83.9688 42.5315C84.3117 42.1958 84.3844 41.7541 84.2156 41.3219C84.0799 40.9674 84.1826 40.7043 84.3787 40.4342C84.5269 40.2311 84.7037 40.0417 84.8203 39.8236C84.9327 39.6095 85.0519 39.3652 85.0506 39.1348C85.0438 38.3659 85.459 37.8177 85.906 37.2217C86.0624 37.3403 86.1557 37.4537 86.2749 37.4958C86.8219 37.6825 87.0164 38.1339 87.1688 38.6207C87.3839 39.3189 87.5499 40.035 87.8187 40.7111C88.186 41.6425 88.6276 42.5439 89.0443 43.4574L89.2143 43.6712C89.442 43.9112 89.7092 43.9765 90.0287 43.8689C90.4496 43.7311 90.7019 43.4461 90.7047 43.0152C90.7073 42.1046 90.676 41.1922 90.6511 40.2802C90.6373 39.7701 90.6033 39.2586 90.5758 38.6696C91.0598 38.9262 91.2503 39.218 91.2093 39.6569C91.19 39.8602 91.2257 40.0714 91.1941 40.2719C91.0694 41.0598 91.5847 41.4922 92.1031 41.9192C92.3019 42.0814 92.5487 42.0842 92.7379 41.9095C93.2289 41.4542 93.71 40.9878 93.6155 40.2201C93.5894 40.0212 93.5839 39.8043 93.6333 39.6119C93.8239 38.8742 93.7541 38.1652 93.4647 37.4696C93.3685 37.2405 93.3264 37.0211 93.4702 36.7415C93.8046 37.0444 94.1528 37.2582 94.3572 37.5679C94.8385 38.2879 95.2634 39.0461 95.683 39.8041C96.0148 40.4027 96.2958 41.0273 96.6179 41.6313C96.7866 41.9462 97.0362 42.1956 97.4336 42.1589C97.8368 42.1207 98.1068 41.9054 98.2192 41.499C98.2891 41.2441 98.392 40.9987 98.4935 40.7111L98.5826 40.8091L98.6101 41.0109C98.6661 41.9436 99.1748 42.5177 100.034 42.8329C100.335 42.9418 100.628 43.0729 100.905 43.227C102.029 43.8527 103.303 43.6195 104.105 42.6282C104.231 42.473 104.351 42.312 104.529 42.0816C104.604 42.428 104.664 42.6911 104.715 42.9543C104.847 43.6048 105.166 44.1515 105.643 44.6029C106.093 45.0283 106.706 45.0597 107.222 44.712C107.675 44.4052 107.915 44.0097 107.867 43.4413C107.78 42.4271 107.528 41.4616 107.137 40.5276ZM85.2284 34.4214C85.6274 33.3647 86.0031 32.3748 86.3772 31.3833L86.5555 31.4283C86.5555 31.9491 86.4802 32.4837 86.5761 32.9869C86.6666 33.4503 86.9422 33.8801 87.1767 34.4212L85.2284 34.4214ZM103.164 39.5895C102.932 39.7803 102.758 40.0408 102.539 40.2509C102.163 40.6134 101.693 40.5492 101.619 40.0708C101.549 39.6277 101.669 39.149 101.743 38.6921C101.816 38.2447 102.002 37.9243 102.499 37.7267C102.942 37.5467 103.291 37.139 103.803 36.7407C103.918 37.8428 104.099 38.8162 103.164 39.5895Z" fill="#BFDE42"/>
<path id="Vector_5" d="M74.6854 19.4301C74.1931 19.512 73.6778 19.5529 73.2211 19.7357C72.6728 19.9538 72.1285 20.2443 71.6623 20.6042C70.2679 21.6814 68.9052 22.8022 67.541 23.919C67.2025 24.1972 66.9076 24.5394 66.4182 24.4931C65.9959 24.4536 65.6545 24.6187 65.342 24.8681C64.8401 25.2662 64.3549 25.689 63.8474 26.0816C63.6143 26.2618 63.3622 26.4308 63.0921 26.5481C62.6385 26.7473 62.164 26.9012 61.6924 27.0757C61.3757 26.5208 61.3496 25.9412 61.6594 25.34C61.7857 25.0974 61.8926 24.8342 61.9365 24.5682C62.0667 23.7856 62.2435 23.0055 61.7828 22.2392C61.6445 22.0101 61.691 21.6679 61.6662 21.3748C61.6333 20.9903 61.7198 20.5511 61.5648 20.2294C61.3042 19.6935 61.4001 19.2257 61.5716 18.7254C61.6373 18.5304 61.7088 18.3367 61.7622 18.1391C61.9995 17.2677 62.0762 16.3841 61.895 15.4938C61.6963 14.5065 60.8422 14.1984 60.0304 14.8107C59.8838 14.9199 59.7384 15.0289 59.6054 15.1284C58.791 14.9238 58.6346 14.9457 58.277 15.4746C58.1165 15.712 57.9985 16.0092 57.9643 16.2916C57.9191 16.6964 57.9808 17.1125 57.9724 17.5241C57.9494 18.8005 58.0602 20.1028 57.8448 21.3462C57.5653 22.9579 57.1978 24.5698 56.5946 26.112C56.4137 26.5741 56.3588 27.0855 56.2464 27.5736C56.1408 28.0386 56.0639 28.5118 55.9241 28.966C55.706 29.6832 55.4263 30.3827 55.2098 31.1027C55.1345 31.3564 55.1303 31.6495 55.1633 31.917C55.2181 32.3586 55.4827 32.675 55.9102 32.8168C56.2956 32.945 56.5766 32.746 56.8111 32.4665C57.088 32.1324 57.3567 31.7915 57.6404 31.4602C57.7625 31.3182 57.9079 31.1968 58.0433 31.066L58.2065 31.1573C58.1105 31.5445 58.0078 31.9332 57.9186 32.3247C57.8514 32.611 57.761 32.9015 57.7568 33.1906C57.743 34.2542 57.5921 35.2675 57.0206 36.2041C56.7821 36.597 56.6462 37.1313 57.0522 37.4749C57.4951 37.8513 57.443 38.2617 57.362 38.7118C57.1084 40.1284 56.8506 41.5424 56.5819 42.9552C56.5353 43.2006 56.4598 43.4461 56.3529 43.671C55.9827 44.4443 55.8567 45.2746 55.6702 46.0994C55.4715 46.9858 55.8854 47.5477 56.4133 48.1055C56.7327 48.4451 57.0535 48.4805 57.3756 48.1489C57.6883 47.8286 58.0117 47.4523 58.1435 47.0418C58.4149 46.1909 58.7069 45.3565 59.0907 44.5507C59.1866 44.346 59.24 44.1172 59.2881 43.8962C59.4758 43.025 59.6528 42.1522 59.835 41.2806C60.0063 40.4558 60.1793 39.632 60.3752 38.7009C61.1072 39.0418 61.4609 38.5646 61.8421 38.1119C61.9271 38.0084 62.0889 37.9688 62.2534 37.88C62.4071 38.2861 62.485 38.6585 62.6798 38.9559C62.8745 39.2516 63.1898 39.4711 63.4461 39.729L63.6037 39.9524C64.1823 41.0175 64.8225 42.0677 64.9075 43.314C64.9609 44.0883 65.3491 44.6422 65.9235 45.1003C66.6035 45.6417 66.9888 46.3724 67.1588 47.1824C67.3946 48.2924 67.9567 49.221 68.6257 50.091C68.9232 50.478 69.0644 50.8693 69.1164 51.3358C69.159 51.7175 69.1933 52.1296 69.3635 52.462C69.6485 53.02 69.8665 53.572 69.913 54.2047C69.946 54.667 70.3133 54.9424 70.7494 54.9492C71.2346 54.9546 71.472 54.7539 71.5899 54.2292C71.6103 54.142 71.6132 54.0492 71.6283 53.9129C72.318 53.9239 72.6592 53.7424 72.747 53.2161C72.8676 52.4961 72.9457 51.7651 72.662 51.0521C72.5263 50.7125 72.4152 50.3636 72.3002 50.0159C71.6257 47.9758 70.9773 45.9348 70.8649 43.7584C70.8359 43.2443 70.5564 42.7042 70.2698 42.2528C69.7831 41.4894 69.4155 40.7163 69.2704 39.8067C69.073 38.5766 68.5671 38.1444 67.3344 37.94C66.8711 37.8623 66.4515 37.7203 66.1595 37.3084C65.4973 36.3746 64.816 35.4542 64.1469 34.5282C64.0523 34.3972 63.9796 34.2542 63.8975 34.1164C63.674 33.7482 63.4656 33.3704 63.2269 33.0131C62.7443 32.2863 63.0118 31.4313 63.84 31.1149C64.3553 30.9199 64.8737 30.7373 65.3877 30.541C66.8518 29.9833 67.8678 29.037 68.2476 27.4594C68.4696 26.5446 68.9454 25.7685 69.9051 25.4086C70.0984 25.3363 70.2698 25.2109 70.4576 25.1264C71.416 24.686 72.1054 23.9769 72.5538 23.0345C72.7279 22.6705 73.0116 22.4346 73.3161 22.1783C73.9632 21.6343 74.5598 21.0302 75.1601 20.433C75.341 20.2543 75.4576 20.0224 75.3122 19.7499C75.1776 19.4954 74.9596 19.3836 74.6854 19.4301Z" fill="#BFDE42"/>
<path id="Vector_6" d="M177.39 49.1072C177.617 48.7936 177.691 48.4254 177.58 48.0629C177.401 47.4763 177.199 46.893 176.959 46.327C176.566 45.4093 176.341 44.4985 176.503 43.469C176.756 41.849 176.396 40.3095 175.403 38.9922C174.978 38.4292 174.823 37.8959 174.916 37.2263C174.976 36.8009 174.971 36.3633 174.719 35.9639C174.143 35.0543 173.591 34.1325 172.595 33.5831C172.247 33.3922 172.26 32.9816 172.602 32.7541C172.812 32.6163 173.062 32.544 173.282 32.4213C173.681 32.2018 174.101 32.0026 174.46 31.7272C174.907 31.3835 175.381 31.1422 175.938 31.0372C176.153 30.9961 176.36 30.883 176.557 30.7768C177.229 30.4169 177.669 29.84 178.053 29.2032C178.277 28.8324 178.358 28.4436 178.311 28.0222C178.281 27.7496 178.277 27.4686 178.201 27.2083C178.094 26.8429 178.018 26.416 177.775 26.1541C177.317 25.6564 177.022 25.0714 176.66 24.5219C176.441 24.1852 176.36 23.9247 176.598 23.5359C176.947 22.966 176.81 22.4573 176.322 21.9992C175.782 21.4973 175.163 21.2709 174.426 21.4373C173.81 21.5749 173.24 21.4305 172.696 21.1551C171.841 20.7214 171.293 20.7638 170.665 21.4674C170.028 22.1833 169.465 22.9675 168.873 23.7229C168.78 23.8412 168.695 23.9668 168.587 24.1168C168.229 23.7895 168.257 23.3955 168.211 23.0192C168.107 22.182 168.022 21.3405 167.853 20.517C167.753 20.0276 167.421 19.8147 167.036 19.8119C166.615 19.8066 166.226 20.1065 166.098 20.5784C166.046 20.7664 166.068 20.9765 166.061 21.177C166.039 21.7675 166.053 22.3606 165.991 22.9483C165.875 24.0815 165.625 25.2079 165.596 26.3424C165.566 27.5874 165.382 28.7913 165.117 30.0009C165.027 30.4113 165.074 30.8572 165.101 31.2852C165.136 31.8362 165.466 32.1948 165.942 32.4551C166.534 32.777 166.675 33.1766 166.422 33.8159C166.28 34.1773 166.086 34.5169 165.945 34.8796C165.702 35.5015 165.662 36.1421 165.998 36.7367C166.361 37.3818 166.372 38.0007 166.168 38.7072C166.008 39.2634 165.942 39.8893 166.017 40.4604C166.114 41.197 166.121 41.9141 166.032 42.6409C165.995 42.9353 165.96 43.2395 165.998 43.5284C166.029 43.7588 166.125 44.022 166.282 44.1897C166.867 44.8169 167.805 44.6681 168.138 43.8542C168.33 43.3812 168.408 42.8357 168.416 42.3229C168.43 41.5278 168.592 40.801 168.92 40.0729C169.158 39.5438 169.244 38.9384 169.356 38.3602C169.421 38.0112 169.402 37.6485 169.417 37.3908C169.58 37.5109 169.783 37.65 169.979 37.7998C170.909 38.5074 171.579 39.425 172.151 40.4274C172.365 40.8026 172.614 41.1775 172.922 41.476C173.58 42.1144 173.831 42.8654 173.787 43.7627C173.766 44.191 173.769 44.6561 173.917 45.0449C174.202 45.7987 174.394 46.565 174.547 47.3532C174.69 48.0745 174.975 48.7565 175.535 49.2771C176.123 49.8246 176.925 49.7495 177.39 49.1072ZM172.052 29.2641C171.874 29.5941 171.585 29.8629 171.319 30.1874C171.157 30.0743 171.012 30.0239 170.953 29.923C170.687 29.4676 170.37 29.068 169.955 28.7284C169.803 28.6044 169.8 28.303 169.715 28.0383C170.429 27.8735 170.824 27.497 171.065 26.8999C171.475 25.8923 171.704 25.7886 173.078 25.9181C172.069 26.5957 172.076 27.4044 172.292 28.3111C172.361 28.5989 172.205 28.9793 172.052 29.2641Z" fill="#BFDE42"/>
<path id="Vector_7" d="M177.593 32.6829C177.066 32.8205 176.846 33.1847 176.95 33.7056C177.07 34.3109 177.439 34.6533 178.055 34.5988C178.592 34.5511 179.029 34.742 179.504 34.9206C180.218 35.1906 180.764 35.856 181.656 35.7485C181.6 35.9243 181.587 36.0429 181.53 36.1355C181.171 36.745 181.038 37.3982 181.016 38.1003C181.005 38.4196 180.848 38.7592 180.679 39.0441C180.453 39.4287 180.38 39.8131 180.497 40.2249C180.588 40.5534 180.694 40.8875 180.861 41.1821C181.06 41.5324 181.071 41.8189 180.9 42.1978C180.534 43.0161 180.435 43.8671 180.889 44.7083C180.961 44.8446 181.019 45.0136 181.012 45.1637C180.961 46.1427 181.041 47.1612 180.793 48.0887C180.446 49.3787 180.416 50.6592 180.446 51.9586C180.46 52.5533 180.583 53.1477 180.956 53.6384C181.314 54.1075 181.759 54.068 182.057 53.562C182.126 53.446 182.162 53.31 182.204 53.1787C182.405 52.5271 182.604 51.8739 182.797 51.2168C182.9 50.8676 183.032 50.5201 183.076 50.1626C183.26 48.6246 183.435 47.0837 183.576 45.5415C183.654 44.6852 183.791 43.8671 184.308 43.1497C184.425 42.9877 184.529 42.7831 184.544 42.5907C184.593 41.9333 184.685 41.2666 184.436 40.6228C184.32 40.3284 184.334 40.0474 184.492 39.7694C184.963 38.9336 185.009 38.0389 184.894 37.1117C184.84 36.6889 184.847 36.2567 184.826 35.83L184.994 35.7086C185.232 35.8191 185.516 35.8789 185.701 36.0482C186.489 36.7695 187.449 36.8433 188.41 36.6959C188.942 36.6129 189.341 36.6946 189.748 37.0001C190.275 37.3967 190.879 37.6015 191.542 37.6273C192.472 37.6598 192.828 37.3423 192.87 36.4465C193.058 36.3115 193.257 36.1929 193.43 36.0442C193.902 35.6337 193.946 35.1266 193.504 34.675C193.287 34.4527 193.003 34.2618 192.712 34.1528C192.33 34.0096 191.916 33.9316 191.509 33.8785C191.217 33.8405 190.998 33.7423 190.804 33.5173C190.427 33.0742 189.924 32.8724 189.344 32.8628C188.91 32.8561 188.474 32.8613 188.029 32.8613C187.444 32.0596 187.264 32.0024 186.175 32.147C185.707 32.2068 185.227 32.3243 184.681 32.0869C184.793 31.7351 184.865 31.3765 185.016 31.0572C185.468 30.0975 185.774 29.0922 185.963 28.0589C186.169 26.934 186.388 25.82 186.923 24.7916L186.964 24.6608C187.083 23.8714 187.107 23.1118 186.425 22.5159C185.882 22.0426 185.87 21.9186 186.231 21.2995C186.599 20.6668 187.001 20.0519 187.336 19.4026C187.53 19.025 187.699 18.6036 187.743 18.1878C187.828 17.352 187.252 16.8733 186.407 17.007C185.652 17.1269 185.199 17.6097 184.899 18.2738C184.684 18.7497 184.451 19.2174 184.222 19.6904C183.635 20.9014 183.017 22.0972 182.844 23.465C182.782 23.9546 182.593 24.4304 182.427 24.9021C182.171 25.6398 181.961 26.3871 181.975 27.174C181.983 27.7112 181.865 28.2104 181.625 28.693C181.302 29.3475 181.215 30.0295 181.361 30.7589C181.524 31.5772 181.269 31.8677 180.449 31.8716C180.002 31.8729 179.573 31.9137 179.217 32.2125C178.903 32.4756 178.538 32.5737 178.138 32.5971C177.955 32.6078 177.769 32.6366 177.593 32.6829Z" fill="#BFDE42"/>
<path id="Vector_8" d="M52.8617 38.4384C52.0405 39.026 51.5044 39.0317 50.6722 38.4534C50.4267 38.2831 50.1951 38.0935 49.9469 37.9297C49.5124 37.6408 49.0573 37.5452 48.6115 37.9053C48.3415 38.1221 48.0672 38.1167 47.7791 37.9695C47.2952 37.7199 46.8427 37.8155 46.411 38.0881C46.0808 38.294 45.7736 38.5395 45.4377 38.7332C44.9744 38.9976 44.5451 38.7537 44.5383 38.2246C44.5354 38.047 44.5712 37.8562 44.6437 37.6941C44.7917 37.3615 44.9673 37.0409 45.1469 36.7245C45.3731 36.329 45.6596 35.9597 45.8408 35.545C46.2562 34.5907 46.104 34.119 45.2664 33.5665C45.1718 33.5038 45.0758 33.4437 44.9234 33.3455C45.0426 32.4619 45.6131 31.9424 46.2162 31.4392C47.0251 30.7655 47.8422 30.1001 48.621 29.3923C49.057 28.9955 49.3462 28.4993 49.0419 27.8802C49.4764 27.6075 49.9138 27.5037 50.3841 27.5079C50.7749 27.5107 51.1658 27.512 51.5564 27.497C52.5436 27.4588 53.4045 27.1467 54.0105 26.3258C54.267 25.9766 54.386 25.5785 54.1697 25.1679C53.9723 24.7903 53.6322 24.6185 53.2018 24.6375C52.4463 24.67 51.6897 24.6811 50.937 24.748C50.5956 24.7792 50.32 24.782 50.0774 24.4916C49.8115 24.1738 49.4413 24.0688 49.023 24.0948C47.9851 24.1616 47.0473 24.508 46.2536 25.1708C46.0083 25.3754 45.7655 25.7093 45.7257 26.0107C45.6285 26.7715 45.2089 27.1262 44.5029 27.2528L44.1751 27.3537C42.8015 27.7451 42.3477 28.3 42.1597 29.6908C42.0829 30.2717 42.0047 30.8976 41.7362 31.3995C41.3521 32.1086 41.1508 32.8244 41.1069 33.611C41.0794 34.1308 40.8765 34.5793 40.5202 34.9663C40.2721 35.2349 39.991 35.4954 39.8266 35.8134C39.6098 36.2292 39.4234 36.6861 39.3479 37.1468C39.2519 37.721 39.6289 38.0957 40.2104 38.1394C40.3147 38.1475 40.4187 38.1407 40.5887 38.1407C40.4392 38.396 40.2899 38.5757 40.2185 38.7845C40.0799 39.1894 39.9181 39.6041 39.8826 40.0225C39.8263 40.677 40.1388 40.9825 40.8094 41.0343C41.1299 41.0603 41.4523 41.0454 41.7744 41.0522C42.4436 41.0686 42.6533 41.288 42.5231 41.9397C42.4052 42.5411 42.5257 43.0591 43.0263 43.4C43.4883 43.718 43.583 44.1325 43.5939 44.633C43.6007 44.9507 43.6337 45.2753 43.7226 45.5795C43.7898 45.8083 43.9297 46.0376 44.0941 46.2147C44.3765 46.5229 44.7713 46.5567 45.0743 46.2774C45.336 46.0335 45.5692 45.736 45.7407 45.4224C46.0024 44.9424 46.1767 44.4133 46.433 43.9307C46.6358 43.5518 46.873 43.1805 47.1512 42.8549C47.3938 42.5697 47.6968 42.4389 48.1287 42.6012C48.392 42.7005 48.7663 42.6352 49.0474 42.5289C49.3833 42.4022 49.7028 42.188 49.9713 41.948C50.4388 41.5267 50.9365 41.411 51.5549 41.5132C52.9739 41.7477 54.279 40.815 54.5065 39.4051C54.5544 39.1147 54.4927 38.7491 54.3434 38.4997C54.0272 37.9669 53.513 37.9721 52.8617 38.4384Z" fill="#BFDE42"/>
<path id="Vector_9" d="M162.69 34.6872C162.187 34.0832 162.063 33.5051 162.402 32.8012C162.617 32.3488 162.839 31.8891 162.972 31.4091C163.303 30.2309 163.278 29.0691 162.683 27.9551C162.559 27.7219 162.499 27.4395 162.472 27.1738C162.409 26.6079 162.214 26.1373 161.792 25.7243C161.046 24.9934 160.243 24.3839 159.24 24.0334C157.861 23.5534 156.581 23.713 155.514 24.6905C154.829 25.3192 154.299 26.1142 153.689 26.8246C153.5 27.044 153.294 27.2692 153.053 27.4218C151.985 28.0969 151.153 28.9435 150.944 30.2418C150.821 31.0013 150.554 31.6598 150.037 32.2666C149.373 33.0465 149.32 34.219 149.89 34.9462C150.643 35.9073 150.778 36.9682 150.625 38.1191C150.565 38.5705 150.536 39.0258 150.484 39.5757C150.543 39.9845 150.561 40.4933 150.699 40.9677C150.859 41.5184 151.301 41.8076 151.79 41.6835C152.362 41.5361 152.76 41.7993 153.191 42.0681C153.536 42.2834 153.892 42.4852 154.265 42.6461C154.484 42.7418 154.639 42.8425 154.754 43.0676C155.123 43.7861 155.575 44.0261 156.39 43.8695C157.015 43.7481 157.613 43.5096 158.271 43.6321C158.416 43.6594 158.603 43.6035 158.734 43.526C159.403 43.1316 160.168 42.8248 160.7 42.2917C161.649 41.3413 162.515 40.2915 163.302 39.2007C163.773 38.5489 164.12 37.7797 163.9 36.8852C163.692 36.0359 163.225 35.3323 162.69 34.6872ZM157.67 37.0079C158.011 37.7074 157.989 37.7186 157.92 38.4069C157.496 38.448 157.051 38.4903 156.655 38.5257C156.324 38.0158 156.032 37.5589 155.735 37.1062C155.483 36.7271 155.17 36.4297 154.676 36.453C154.315 36.4694 154.19 36.2567 154.131 35.9623C154.068 35.6498 154.016 35.3336 153.951 35.0213C153.769 34.1443 153.976 33.3767 154.651 32.7822C155.31 32.2011 155.575 31.5344 155.425 30.6508C155.307 29.9527 155.804 29.5366 156.4 29.2462C156.297 29.6854 156.185 30.123 156.098 30.5648C155.92 31.4621 156.296 32.1192 157.024 32.613C157.195 32.7287 157.383 32.8176 157.553 32.9349C157.99 33.2347 158.079 33.4885 157.912 33.9916C157.834 34.229 157.722 34.4566 157.626 34.6898C157.306 35.4688 157.292 36.2336 157.67 37.0079Z" fill="#BFDE42"/>
<path id="Vector_10" d="M36.4729 30.9007C36.4467 30.0416 36.5949 29.2209 36.9006 28.4203C37.127 27.8285 37.2446 27.2026 36.9568 26.6178C36.6371 25.9685 36.5633 25.3197 36.6909 24.627V24.3529C36.6551 23.8279 36.4057 23.5716 35.8752 23.5224C35.4022 23.4816 34.9675 23.5877 34.5672 23.8537C34.4274 23.9478 34.2425 24.0365 34.0833 24.0269C33.2485 23.9764 32.9371 24.2068 33.0427 25.0072C33.1552 25.8744 33.0509 26.6872 32.7466 27.4915C32.6985 27.6184 32.6862 27.7575 32.6574 27.8925C32.5531 28.3847 32.6216 28.8047 33.1413 29.0381C33.4718 29.1866 33.5484 29.4784 33.4924 29.7826C33.4389 30.0691 33.3196 30.3458 33.2098 30.6185C33.0234 31.085 32.7931 31.5349 32.6328 32.0079C32.3709 32.7866 32.4519 33.5012 33.1565 34.041C33.432 34.2524 33.5745 34.5291 33.5594 34.87C33.5293 35.552 33.5278 36.238 33.4334 36.9114C33.3703 37.3722 33.2838 37.821 33.4896 38.2534C33.6773 38.6461 33.7076 39.0457 33.6117 39.4547C33.4951 39.9566 33.6007 40.4064 33.8804 40.8225C34.134 41.1976 34.2258 41.6106 34.2135 42.0578C34.2054 42.4684 34.2122 42.8803 34.2122 43.2919H34.1931C34.1931 43.7717 34.1779 44.253 34.1972 44.7332C34.2205 45.3141 34.3507 45.8704 34.773 46.3054C35.2404 46.7854 35.7986 46.7293 36.1565 46.1704C36.2509 46.0178 36.3389 45.8391 36.3578 45.6644C36.4195 45.1233 36.5128 44.5723 36.4731 44.0338C36.3811 42.73 36.5128 41.4813 37.1461 40.311C37.2543 40.1149 37.2872 39.8788 37.3683 39.6646C37.7123 38.7729 37.6054 37.918 37.1599 37.0903L37.0956 36.9687C36.8707 36.5243 36.8788 36.0988 37.1531 35.668C37.3738 35.3216 37.5397 34.9384 37.7714 34.5988C38.2966 33.8366 38.2224 32.8493 37.1996 32.2536C36.6318 31.9234 36.4893 31.4787 36.4729 30.9007Z" fill="#BFDE42"/>
<path id="Vector_11" d="M33.8268 21.0501C34.3643 21.4864 34.9908 21.6448 35.6337 21.4128C36.2972 21.1741 36.6167 20.6205 36.6687 19.9239C36.7385 18.9886 36.8729 18.0722 37.0991 17.1572C37.3417 16.1728 36.7385 15.563 35.6334 15.7159C35.6925 15.3859 35.7527 15.1243 35.783 14.8583C35.8791 14.0702 35.2949 13.3366 34.6013 13.4157C34.0721 13.4757 33.5798 13.6694 33.2041 14.0839C32.7845 14.5476 32.6379 15.2715 32.9821 15.7926C33.2906 16.2536 33.2002 16.6228 32.9657 17.0552C32.7257 17.4957 32.4982 17.9526 32.3515 18.4271C32.1553 19.0722 32.2376 19.702 32.778 20.1849C33.1167 20.4856 33.4757 20.7649 33.8268 21.0501Z" fill="#BFDE42"/>
<path id="Vector_12" d="M190.458 57.354V57.4852H190.078V58.4697H189.925V57.4852H189.545V57.354" fill="#BFDE42"/>
<path id="Vector_13" d="M190.562 57.354H190.779L191.104 58.2965L191.426 57.354H191.641V58.4697H191.499V57.8168L191.5 57.6966V57.5287L191.178 58.4697H191.028L190.698 57.5287V57.5617L190.706 57.687V58.4697H190.562" fill="#BFDE42"/>
</g>
</g>
<defs>
<clipPath id="clip0_7_204">
<rect width="219.569" height="64" fill="white"/>
</clipPath>
</defs>
</svg>
