<svg width="48" height="48" viewBox="0 0 48 48" fill="none" xmlns="http://www.w3.org/2000/svg">
<path d="M24 12C22.5166 12 21.0666 12.4399 19.8332 13.264C18.5999 14.0881 17.6386 15.2594 17.0709 16.6299C16.5032 18.0003 16.3547 19.5083 16.6441 20.9632C16.9335 22.418 17.6478 23.7544 18.6967 24.8033C19.7456 25.8522 21.082 26.5665 22.5368 26.8559C23.9917 27.1453 25.4997 26.9968 26.8701 26.4291C28.2406 25.8614 29.4119 24.9001 30.236 23.6668C31.0601 22.4334 31.5 20.9834 31.5 19.5C31.5 17.5109 30.7098 15.6032 29.3033 14.1967C27.8968 12.7902 25.9891 12 24 12ZM24 24C23.11 24 22.24 23.7361 21.4999 23.2416C20.7599 22.7471 20.1831 22.0443 19.8425 21.2221C19.5019 20.3998 19.4128 19.495 19.5865 18.6221C19.7601 17.7492 20.1887 16.9474 20.818 16.318C21.4474 15.6887 22.2492 15.2601 23.1221 15.0865C23.995 14.9128 24.8998 15.0019 25.7221 15.3425C26.5443 15.6831 27.2471 16.2599 27.7416 16.9999C28.2361 17.74 28.5 18.61 28.5 19.5C28.5 20.6935 28.0259 21.8381 27.182 22.682C26.3381 23.5259 25.1935 24 24 24ZM24 3C19.6255 3.00496 15.4315 4.74494 12.3382 7.83822C9.24494 10.9315 7.50496 15.1255 7.5 19.5C7.5 25.3875 10.2206 31.6275 15.375 37.5469C17.691 40.2217 20.2977 42.6303 23.1469 44.7281C23.3991 44.9048 23.6996 44.9996 24.0075 44.9996C24.3154 44.9996 24.6159 44.9048 24.8681 44.7281C27.712 42.6294 30.3137 40.2208 32.625 37.5469C37.7719 31.6275 40.5 25.3875 40.5 19.5C40.495 15.1255 38.7551 10.9315 35.6618 7.83822C32.5685 4.74494 28.3745 3.00496 24 3ZM24 41.625C20.9006 39.1875 10.5 30.2344 10.5 19.5C10.5 15.9196 11.9223 12.4858 14.4541 9.95406C16.9858 7.42232 20.4196 6 24 6C27.5804 6 31.0142 7.42232 33.5459 9.95406C36.0777 12.4858 37.5 15.9196 37.5 19.5C37.5 30.2306 27.0994 39.1875 24 41.625Z" fill="white"/>
</svg>
