<svg width="24" height="24" viewBox="0 0 24 24" fill="none" xmlns="http://www.w3.org/2000/svg">
<g id="Moon">
<path id="Vector" d="M21.7622 13.4662C21.6899 13.3941 21.5994 13.343 21.5003 13.3184C21.4012 13.2938 21.2973 13.2966 21.1997 13.3266C19.7372 13.7686 18.1821 13.8055 16.7002 13.4335C15.2184 13.0614 13.8652 12.2942 12.785 11.2137C11.7048 10.1332 10.938 8.77982 10.5663 7.29785C10.1946 5.81589 10.2319 4.26084 10.6744 2.79843C10.7039 2.70091 10.7064 2.59719 10.6816 2.49836C10.6568 2.39952 10.6056 2.30928 10.5335 2.23727C10.4614 2.16526 10.3711 2.1142 10.2723 2.08952C10.1734 2.06485 10.0697 2.0675 9.97219 2.09718C8.03303 2.69211 6.33078 3.88326 5.1075 5.50124C3.72081 7.34258 3.04592 9.62285 3.20705 11.9223C3.36819 14.2217 4.35451 16.3856 5.98445 18.0155C7.61439 19.6455 9.77825 20.6318 12.0777 20.7929C14.3771 20.9541 16.6574 20.2792 18.4988 18.8925C20.1167 17.6692 21.3079 15.967 21.9028 14.0278C21.9325 13.9302 21.9351 13.8265 21.9103 13.7275C21.8855 13.6286 21.8343 13.5383 21.7622 13.4662ZM17.8247 17.9934C16.1999 19.2121 14.19 19.8037 12.1641 19.6597C10.1381 19.5157 8.23214 18.6458 6.79598 17.2096C5.35982 15.7735 4.4899 13.8675 4.34592 11.8416C4.20194 9.81563 4.79357 7.80576 6.01219 6.18093C6.88018 5.03008 8.0259 4.1182 9.34219 3.53062C9.06507 5.05276 9.1612 6.61941 9.62234 8.09625C10.0835 9.5731 10.8959 10.9161 11.9899 12.0101C13.0839 13.1041 14.4269 13.9165 15.9037 14.3777C17.3806 14.8388 18.9472 14.9349 20.4694 14.6578C19.8834 15.9758 18.9725 17.1235 17.8219 17.9934H17.8247Z" fill="white"/>
</g>
</svg>
