<svg width="48" height="48" viewBox="0 0 48 48" fill="none" xmlns="http://www.w3.org/2000/svg">
<path d="M30 7.5C30 6.31332 29.6481 5.15328 28.9888 4.16658C28.3295 3.17989 27.3925 2.41085 26.2961 1.95673C25.1997 1.5026 23.9933 1.38378 22.8295 1.61529C21.6656 1.8468 20.5965 2.41825 19.7574 3.25736C18.9182 4.09648 18.3468 5.16558 18.1153 6.32946C17.8838 7.49335 18.0026 8.69975 18.4567 9.7961C18.9108 10.8925 19.6799 11.8295 20.6666 12.4888C21.6533 13.1481 22.8133 13.5 24 13.5C25.5913 13.5 27.1174 12.8679 28.2426 11.7426C29.3679 10.6174 30 9.0913 30 7.5ZM24 10.5C23.4067 10.5 22.8266 10.3241 22.3333 9.99441C21.8399 9.66477 21.4554 9.19623 21.2284 8.64805C21.0013 8.09988 20.9419 7.49668 21.0576 6.91473C21.1734 6.33279 21.4591 5.79824 21.8787 5.37868C22.2982 4.95913 22.8328 4.6734 23.4147 4.55765C23.9967 4.44189 24.5999 4.5013 25.1481 4.72836C25.6962 4.95543 26.1648 5.33995 26.4944 5.83329C26.8241 6.32664 27 6.90666 27 7.5C27 8.29565 26.6839 9.05871 26.1213 9.62132C25.5587 10.1839 24.7956 10.5 24 10.5ZM40.9387 25.1344L32.4694 15.5306C31.9063 14.8923 31.2138 14.3811 30.4379 14.031C29.662 13.6809 28.8206 13.4999 27.9694 13.5H20.0306C19.1794 13.4999 18.338 13.6809 17.5621 14.031C16.7862 14.3811 16.0937 14.8923 15.5306 15.5306L7.06125 25.1344C6.37346 25.8378 5.98965 26.7834 5.99257 27.7672C5.99549 28.751 6.38491 29.6943 7.07688 30.3936C7.76884 31.0929 8.70791 31.4923 9.69163 31.5057C10.6754 31.5191 11.6249 31.1453 12.3356 30.465L15.3919 28.0125L12.2906 39.8025C11.8799 40.7088 11.846 41.7411 12.1964 42.6724C12.5468 43.6037 13.2528 44.3577 14.1591 44.7684C15.0654 45.1792 16.0977 45.2131 17.029 44.8627C17.9603 44.5123 18.7142 43.8063 19.125 42.9L24 34.4869L28.875 42.9C29.3041 43.7759 30.0576 44.4501 30.9756 44.7797C31.8936 45.1092 32.9038 45.0681 33.792 44.6651C34.6802 44.2621 35.3764 43.5289 35.733 42.6211C36.0896 41.7133 36.0784 40.7022 35.7019 39.8025L32.6081 28.0125L35.6644 30.465C36.3751 31.1453 37.3246 31.5191 38.3084 31.5057C39.2921 31.4923 40.2312 31.0929 40.9231 30.3936C41.6151 29.6943 42.0045 28.751 42.0074 27.7672C42.0103 26.7834 41.6265 25.8378 40.9387 25.1344ZM38.7806 28.2788C38.711 28.3485 38.6283 28.4038 38.5372 28.4415C38.4462 28.4793 38.3486 28.4987 38.25 28.4987C38.1514 28.4987 38.0538 28.4793 37.9628 28.4415C37.8717 28.4038 37.789 28.3485 37.7194 28.2788C37.68 28.2413 37.6406 28.2038 37.5975 28.17L30.9375 22.83C30.6917 22.6338 30.3905 22.5198 30.0764 22.5042C29.7622 22.4885 29.4512 22.572 29.1871 22.7428C28.923 22.9136 28.7193 23.1631 28.6047 23.456C28.4902 23.7489 28.4706 24.0704 28.5487 24.375L32.8387 40.6875C32.8608 40.7745 32.891 40.8592 32.9287 40.9406C32.972 41.0301 32.9971 41.1273 33.0025 41.2265C33.0079 41.3258 32.9935 41.4251 32.9602 41.5188C32.9268 41.6124 32.8752 41.6985 32.8083 41.772C32.7414 41.8455 32.6606 41.905 32.5705 41.947C32.4804 41.989 32.3829 42.0127 32.2836 42.0166C32.1843 42.0206 32.0851 42.0048 31.992 41.9701C31.8988 41.9355 31.8135 41.8826 31.741 41.8147C31.6684 41.7467 31.6101 41.6651 31.5694 41.5744C31.551 41.5339 31.5303 41.4944 31.5075 41.4563L25.2975 30.75C25.1656 30.5227 24.9764 30.334 24.7487 30.2029C24.521 30.0717 24.2628 30.0027 24 30.0027C23.7372 30.0027 23.479 30.0717 23.2513 30.2029C23.0236 30.334 22.8344 30.5227 22.7025 30.75L16.5 41.4469C16.4772 41.4851 16.4565 41.5245 16.4381 41.565C16.3965 41.6544 16.3376 41.7347 16.2649 41.8013C16.1922 41.8679 16.1071 41.9195 16.0144 41.9531C15.8749 42.0043 15.7234 42.0128 15.579 41.9777C15.4347 41.9426 15.304 41.8654 15.2036 41.756C15.1032 41.6465 15.0375 41.5097 15.015 41.3629C14.9924 41.216 15.014 41.0658 15.0769 40.9313C15.1147 40.8499 15.1448 40.7651 15.1669 40.6781L19.4512 24.375C19.5294 24.0704 19.5098 23.7489 19.3953 23.456C19.2807 23.1631 19.077 22.9136 18.8129 22.7428C18.5488 22.572 18.2378 22.4885 17.9236 22.5042C17.6095 22.5198 17.3083 22.6338 17.0625 22.83L10.4025 28.17C10.3594 28.2038 10.32 28.2413 10.2806 28.2788C10.2117 28.3514 10.129 28.4095 10.0373 28.4497C9.94561 28.4898 9.8468 28.5112 9.7467 28.5126C9.64661 28.5139 9.54725 28.4953 9.45448 28.4576C9.36172 28.42 9.27743 28.3642 9.20658 28.2934C9.13573 28.2227 9.07976 28.1385 9.04196 28.0458C9.00416 27.9531 8.9853 27.8538 8.9865 27.7537C8.98769 27.6536 9.00891 27.5548 9.0489 27.463C9.0889 27.3712 9.14686 27.2884 9.21938 27.2194C9.24188 27.1969 9.2625 27.1744 9.28313 27.15L17.7806 17.5144C18.0623 17.1954 18.4086 16.94 18.7965 16.7651C19.1844 16.5902 19.6051 16.4998 20.0306 16.5H27.9694C28.3949 16.4998 28.8156 16.5902 29.2035 16.7651C29.5914 16.94 29.9377 17.1954 30.2194 17.5144L38.7169 27.15C38.7375 27.1744 38.7581 27.1969 38.7806 27.2194C38.9209 27.36 38.9997 27.5505 38.9997 27.7491C38.9997 27.9477 38.9209 28.1382 38.7806 28.2788Z" fill="white"/>
</svg>
