<svg width="24" height="24" viewBox="0 0 24 24" fill="none" xmlns="http://www.w3.org/2000/svg">
<path d="M22.979 5.68875C22.2619 4.45219 20.369 4.17375 17.4947 4.87688C16.1639 3.84792 14.5713 3.21279 12.8977 3.04366C11.2241 2.87452 9.53655 3.17816 8.02686 3.92007C6.51717 4.66198 5.2458 5.81242 4.35721 7.2407C3.46861 8.66899 2.99839 10.3179 2.99998 12C3.0001 12.3858 3.02452 12.7713 3.07311 13.1541C0.477168 15.8438 0.514668 17.4375 1.02186 18.3113C1.49998 19.14 2.49748 19.5 3.80998 19.5C4.72125 19.4812 5.62715 19.3553 6.50904 19.125C7.83993 20.153 9.43237 20.7872 11.1056 20.9557C12.7788 21.1241 14.4657 20.8201 15.9748 20.0781C17.4839 19.3361 18.7547 18.1858 19.643 16.7579C20.5312 15.33 21.0014 13.6817 21 12C21.0002 11.6161 20.9761 11.2325 20.9278 10.8516C22.0997 9.63282 22.8797 8.475 23.145 7.48407C23.3278 6.79782 23.2725 6.19407 22.979 5.68875ZM12 4.5C13.6987 4.50175 15.3466 5.07931 16.6747 6.13841C18.0029 7.1975 18.9327 8.67555 19.3125 10.3313C17.7131 11.8369 15.5484 13.3809 13.4934 14.5622C10.9106 16.0444 8.66998 16.9688 6.88311 17.475C5.78255 16.4486 5.01651 15.1145 4.68473 13.6466C4.35294 12.1787 4.47077 10.6449 5.02288 9.24494C5.57499 7.84494 6.5358 6.64359 7.78023 5.79729C9.02465 4.95099 10.495 4.49894 12 4.5ZM2.31936 17.5584C2.18248 17.3231 2.25842 16.8797 2.52748 16.3397C2.79355 15.8337 3.11727 15.3603 3.49217 14.9288C3.86379 16.0055 4.43643 17.0019 5.17967 17.865C3.56248 18.1369 2.55373 17.9634 2.31936 17.5584ZM12 19.5C10.7354 19.5013 9.49134 19.1806 8.38498 18.5681C10.4157 17.8499 12.3751 16.9441 14.2378 15.8625C16.2609 14.7009 18.0515 13.4419 19.4944 12.1988C19.4409 14.1517 18.6282 16.0069 17.2288 17.3702C15.8294 18.7335 13.9537 19.4976 12 19.5ZM21.6956 7.09594C21.5362 7.6875 21.1153 8.36438 20.5115 9.07688C20.1409 7.99887 19.5682 7.00139 18.824 6.13782C20.1562 5.9175 21.39 5.93438 21.6834 6.44157C21.7678 6.58875 21.7725 6.80907 21.6956 7.09594Z" fill="white"/>
</svg>
