<svg width="16" height="16" viewBox="0 0 16 16" fill="none" xmlns="http://www.w3.org/2000/svg">
<g id="Planet">
<path id="Vector" d="M15.3194 3.7925C14.8412 2.96813 13.5794 2.7825 11.6631 3.25125C10.776 2.56528 9.7142 2.14186 8.59845 2.02911C7.48271 1.91635 6.3577 2.11877 5.35124 2.61338C4.34478 3.10798 3.4972 3.87495 2.9048 4.82714C2.31241 5.77933 1.99893 6.87857 1.99999 8C2.00007 8.25723 2.01635 8.5142 2.04874 8.76938C0.318112 10.5625 0.343112 11.625 0.681237 12.2075C0.999987 12.76 1.66499 13 2.53999 13C3.1475 12.9874 3.75143 12.9035 4.33936 12.75C5.22662 13.4353 6.28825 13.8581 7.40371 13.9704C8.51917 14.0828 9.64378 13.8801 10.6498 13.3854C11.6559 12.8907 12.5031 12.1239 13.0953 11.1719C13.6875 10.22 14.0009 9.1211 14 8C14.0001 7.74403 13.984 7.48831 13.9519 7.23438C14.7331 6.42188 15.2531 5.65 15.43 4.98938C15.5519 4.53188 15.515 4.12938 15.3194 3.7925ZM7.99999 3C9.13245 3.00117 10.2311 3.38621 11.1165 4.09227C12.0019 4.79833 12.6218 5.7837 12.875 6.8875C11.8087 7.89125 10.3656 8.92063 8.99561 9.70813C7.27374 10.6963 5.77999 11.3125 4.58874 11.65C3.85503 10.9657 3.34434 10.0764 3.12315 9.09776C2.90196 8.11915 2.98051 7.09663 3.34859 6.16329C3.71666 5.22996 4.3572 4.42906 5.18682 3.86486C6.01644 3.30066 6.9967 2.99929 7.99999 3ZM1.54624 11.7056C1.45499 11.5488 1.50561 11.2531 1.68499 10.8931C1.86237 10.5558 2.07818 10.2402 2.32811 9.9525C2.57586 10.6703 2.95762 11.3346 3.45311 11.91C2.37499 12.0913 1.70249 11.9756 1.54624 11.7056ZM7.99999 13C7.15694 13.0009 6.32756 12.7871 5.58999 12.3788C6.94379 11.9 8.25006 11.2961 9.49186 10.575C10.8406 9.80063 12.0344 8.96125 12.9962 8.1325C12.9606 9.43447 12.4188 10.6713 11.4859 11.5801C10.553 12.489 9.30245 12.9984 7.99999 13ZM14.4637 4.73063C14.3575 5.125 14.0769 5.57625 13.6744 6.05125C13.4273 5.33258 13.0454 4.66759 12.5494 4.09188C13.4375 3.945 14.26 3.95625 14.4556 4.29438C14.5119 4.3925 14.515 4.53938 14.4637 4.73063Z" fill="#313234"/>
</g>
</svg>
