<svg width="16" height="16" viewBox="0 0 16 16" fill="none" xmlns="http://www.w3.org/2000/svg">
<path d="M15 8.00001C15 8.13262 14.9473 8.25979 14.8536 8.35356C14.7598 8.44733 14.6326 8.50001 14.5 8.50001H12.8088L10.4475 13.2238C10.4059 13.3068 10.342 13.3767 10.263 13.4255C10.184 13.4743 10.0929 13.5001 10 13.5H9.975C9.87801 13.4952 9.78452 13.4623 9.70594 13.4052C9.62736 13.3482 9.5671 13.2695 9.5325 13.1788L5.95937 3.79751L3.955 8.20688C3.91529 8.29426 3.85127 8.36836 3.77059 8.42034C3.68991 8.47231 3.59597 8.49997 3.5 8.50001H1.5C1.36739 8.50001 1.24021 8.44733 1.14645 8.35356C1.05268 8.25979 1 8.13262 1 8.00001C1 7.8674 1.05268 7.74022 1.14645 7.64646C1.24021 7.55269 1.36739 7.50001 1.5 7.50001H3.17812L5.545 2.29313C5.5858 2.20328 5.65229 2.12751 5.73607 2.07537C5.81985 2.02323 5.91719 1.99705 6.01583 2.00012C6.11447 2.00319 6.20999 2.03539 6.29036 2.09265C6.37074 2.1499 6.43237 2.22966 6.4675 2.32188L10.0619 11.7594L12.0525 7.77751C12.0939 7.69421 12.1577 7.6241 12.2368 7.57508C12.3158 7.52606 12.407 7.50006 12.5 7.50001H14.5C14.6326 7.50001 14.7598 7.55269 14.8536 7.64646C14.9473 7.74022 15 7.8674 15 8.00001Z" fill="#BFDE42"/>
</svg>
