<svg width="48" height="48" viewBox="0 0 48 48" fill="none" xmlns="http://www.w3.org/2000/svg">
<path d="M26.25 33.75C26.25 34.195 26.118 34.63 25.8708 35C25.6236 35.37 25.2722 35.6584 24.861 35.8287C24.4499 35.999 23.9975 36.0436 23.5611 35.9568C23.1246 35.87 22.7237 35.6557 22.409 35.341C22.0944 35.0263 21.8801 34.6254 21.7932 34.189C21.7064 33.7525 21.751 33.3001 21.9213 32.889C22.0916 32.4778 22.38 32.1264 22.75 31.8792C23.12 31.632 23.555 31.5 24 31.5C24.5967 31.5 25.169 31.7371 25.591 32.159C26.013 32.581 26.25 33.1533 26.25 33.75ZM24 13.5C19.8638 13.5 16.5 16.5281 16.5 20.25V21C16.5 21.3978 16.658 21.7794 16.9393 22.0607C17.2207 22.342 17.6022 22.5 18 22.5C18.3978 22.5 18.7794 22.342 19.0607 22.0607C19.342 21.7794 19.5 21.3978 19.5 21V20.25C19.5 18.1875 21.5194 16.5 24 16.5C26.4806 16.5 28.5 18.1875 28.5 20.25C28.5 22.3125 26.4806 24 24 24C23.6022 24 23.2207 24.158 22.9393 24.4393C22.658 24.7206 22.5 25.1022 22.5 25.5V27C22.5 27.3978 22.658 27.7794 22.9393 28.0607C23.2207 28.342 23.6022 28.5 24 28.5C24.3978 28.5 24.7794 28.342 25.0607 28.0607C25.342 27.7794 25.5 27.3978 25.5 27V26.865C28.92 26.2369 31.5 23.5087 31.5 20.25C31.5 16.5281 28.1363 13.5 24 13.5ZM43.5 24C43.5 27.8567 42.3564 31.6269 40.2137 34.8336C38.071 38.0404 35.0255 40.5397 31.4623 42.0156C27.8992 43.4916 23.9784 43.8777 20.1957 43.1253C16.4131 42.3729 12.9386 40.5157 10.2114 37.7886C7.4843 35.0615 5.62711 31.5869 4.8747 27.8043C4.12228 24.0216 4.50845 20.1008 5.98436 16.5377C7.46027 12.9745 9.95963 9.92903 13.1664 7.78634C16.3731 5.64366 20.1433 4.5 24 4.5C29.1701 4.50546 34.1268 6.56167 37.7826 10.2174C41.4383 13.8732 43.4945 18.83 43.5 24ZM40.5 24C40.5 20.7366 39.5323 17.5465 37.7193 14.8331C35.9062 12.1197 33.3293 10.0048 30.3143 8.75599C27.2993 7.50714 23.9817 7.18039 20.781 7.81704C17.5803 8.4537 14.6403 10.0252 12.3327 12.3327C10.0252 14.6403 8.45371 17.5803 7.81705 20.781C7.1804 23.9817 7.50715 27.2993 8.756 30.3143C10.0048 33.3293 12.1197 35.9062 14.8331 37.7192C17.5465 39.5323 20.7366 40.5 24 40.5C28.3746 40.495 32.5685 38.7551 35.6618 35.6618C38.7551 32.5685 40.495 28.3745 40.5 24Z" fill="white"/>
</svg>
