<svg width="48" height="48" viewBox="0 0 48 48" fill="none" xmlns="http://www.w3.org/2000/svg">
<path d="M6 12C6 11.6022 6.15804 11.2206 6.43934 10.9393C6.72064 10.658 7.10218 10.5 7.5 10.5H40.5C40.8978 10.5 41.2794 10.658 41.5607 10.9393C41.842 11.2206 42 11.6022 42 12C42 12.3978 41.842 12.7794 41.5607 13.0607C41.2794 13.342 40.8978 13.5 40.5 13.5H7.5C7.10218 13.5 6.72064 13.342 6.43934 13.0607C6.15804 12.7794 6 12.3978 6 12ZM25.5 22.5H7.5C7.10218 22.5 6.72064 22.658 6.43934 22.9393C6.15804 23.2206 6 23.6022 6 24C6 24.3978 6.15804 24.7794 6.43934 25.0607C6.72064 25.342 7.10218 25.5 7.5 25.5H25.5C25.8978 25.5 26.2794 25.342 26.5607 25.0607C26.842 24.7794 27 24.3978 27 24C27 23.6022 26.842 23.2206 26.5607 22.9393C26.2794 22.658 25.8978 22.5 25.5 22.5ZM25.5 34.5H7.5C7.10218 34.5 6.72064 34.658 6.43934 34.9393C6.15804 35.2206 6 35.6022 6 36C6 36.3978 6.15804 36.7794 6.43934 37.0607C6.72064 37.342 7.10218 37.5 7.5 37.5H25.5C25.8978 37.5 26.2794 37.342 26.5607 37.0607C26.842 36.7794 27 36.3978 27 36C27 35.6022 26.842 35.2206 26.5607 34.9393C26.2794 34.658 25.8978 34.5 25.5 34.5ZM46.5 30C46.4999 30.2543 46.4351 30.5044 46.3118 30.7267C46.1885 30.9491 46.0106 31.1365 45.795 31.2712L33.795 38.7712C33.568 38.9131 33.3072 38.9917 33.0396 38.9987C32.772 39.0058 32.5073 38.9411 32.2732 38.8114C32.039 38.6817 31.8438 38.4917 31.7079 38.2611C31.5719 38.0305 31.5001 37.7677 31.5 37.5V22.5C31.5001 22.2323 31.5719 21.9695 31.7079 21.7389C31.8438 21.5083 32.039 21.3183 32.2732 21.1886C32.5073 21.0589 32.772 20.9942 33.0396 21.0013C33.3072 21.0083 33.568 21.0869 33.795 21.2288L45.795 28.7288C46.0106 28.8635 46.1885 29.0509 46.3118 29.2733C46.4351 29.4956 46.4999 29.7457 46.5 30ZM42.1706 30L34.5 25.2056V34.7944L42.1706 30Z" fill="white"/>
</svg>
