<svg width="48" height="48" viewBox="0 0 48 48" fill="none" xmlns="http://www.w3.org/2000/svg">
<path d="M37.5 9H25.5V3C25.5 2.60218 25.342 2.22064 25.0607 1.93934C24.7794 1.65804 24.3978 1.5 24 1.5C23.6022 1.5 23.2206 1.65804 22.9393 1.93934C22.658 2.22064 22.5 2.60218 22.5 3V9H10.5C8.9087 9 7.38258 9.63214 6.25736 10.7574C5.13214 11.8826 4.5 13.4087 4.5 15V36C4.5 37.5913 5.13214 39.1174 6.25736 40.2426C7.38258 41.3679 8.9087 42 10.5 42H37.5C39.0913 42 40.6174 41.3679 41.7426 40.2426C42.8679 39.1174 43.5 37.5913 43.5 36V15C43.5 13.4087 42.8679 11.8826 41.7426 10.7574C40.6174 9.63214 39.0913 9 37.5 9ZM40.5 36C40.5 36.7957 40.1839 37.5587 39.6213 38.1213C39.0587 38.6839 38.2957 39 37.5 39H10.5C9.70435 39 8.94129 38.6839 8.37868 38.1213C7.81607 37.5587 7.5 36.7957 7.5 36V15C7.5 14.2044 7.81607 13.4413 8.37868 12.8787C8.94129 12.3161 9.70435 12 10.5 12H37.5C38.2957 12 39.0587 12.3161 39.6213 12.8787C40.1839 13.4413 40.5 14.2044 40.5 15V36ZM30.75 25.5H17.25C15.8576 25.5 14.5223 26.0531 13.5377 27.0377C12.5531 28.0223 12 29.3576 12 30.75C12 32.1424 12.5531 33.4777 13.5377 34.4623C14.5223 35.4469 15.8576 36 17.25 36H30.75C32.1424 36 33.4777 35.4469 34.4623 34.4623C35.4469 33.4777 36 32.1424 36 30.75C36 29.3576 35.4469 28.0223 34.4623 27.0377C33.4777 26.0531 32.1424 25.5 30.75 25.5ZM25.5 28.5V33H22.5V28.5H25.5ZM15 30.75C15 30.1533 15.2371 29.581 15.659 29.159C16.081 28.7371 16.6533 28.5 17.25 28.5H19.5V33H17.25C16.6533 33 16.081 32.7629 15.659 32.341C15.2371 31.919 15 31.3467 15 30.75ZM30.75 33H28.5V28.5H30.75C31.3467 28.5 31.919 28.7371 32.341 29.159C32.7629 29.581 33 30.1533 33 30.75C33 31.3467 32.7629 31.919 32.341 32.341C31.919 32.7629 31.3467 33 30.75 33ZM13.5 20.25C13.5 19.805 13.632 19.37 13.8792 19C14.1264 18.63 14.4778 18.3416 14.889 18.1713C15.3001 18.001 15.7525 17.9564 16.189 18.0432C16.6254 18.13 17.0263 18.3443 17.341 18.659C17.6557 18.9737 17.87 19.3746 17.9568 19.811C18.0436 20.2475 17.999 20.6999 17.8287 21.111C17.6584 21.5222 17.37 21.8736 17 22.1208C16.63 22.368 16.195 22.5 15.75 22.5C15.1533 22.5 14.581 22.2629 14.159 21.841C13.7371 21.419 13.5 20.8467 13.5 20.25ZM30 20.25C30 19.805 30.132 19.37 30.3792 19C30.6264 18.63 30.9778 18.3416 31.389 18.1713C31.8001 18.001 32.2525 17.9564 32.689 18.0432C33.1254 18.13 33.5263 18.3443 33.841 18.659C34.1557 18.9737 34.37 19.3746 34.4568 19.811C34.5436 20.2475 34.499 20.6999 34.3287 21.111C34.1584 21.5222 33.87 21.8736 33.5 22.1208C33.13 22.368 32.695 22.5 32.25 22.5C31.6533 22.5 31.081 22.2629 30.659 21.841C30.2371 21.419 30 20.8467 30 20.25Z" fill="white"/>
</svg>
