<svg width="24" height="24" viewBox="0 0 24 24" fill="none" xmlns="http://www.w3.org/2000/svg">
<g clip-path="url(#clip0_13_674)">
<path d="M12 2.25C10.0716 2.25 8.18657 2.82183 6.58319 3.89317C4.97982 4.96451 3.73013 6.48726 2.99218 8.26884C2.25422 10.0504 2.06114 12.0108 2.43735 13.9021C2.81355 15.7934 3.74215 17.5307 5.10571 18.8943C6.46928 20.2579 8.20656 21.1865 10.0979 21.5627C11.9892 21.9389 13.9496 21.7458 15.7312 21.0078C17.5127 20.2699 19.0355 19.0202 20.1068 17.4168C21.1782 15.8134 21.75 13.9284 21.75 12C21.7473 9.41498 20.7192 6.93661 18.8913 5.10872C17.0634 3.28084 14.585 2.25273 12 2.25ZM12 20.25C10.3683 20.25 8.77326 19.7661 7.41655 18.8596C6.05984 17.9531 5.00242 16.6646 4.378 15.1571C3.75358 13.6496 3.5902 11.9908 3.90853 10.3905C4.22685 8.79016 5.01259 7.32015 6.16637 6.16637C7.32016 5.01259 8.79017 4.22685 10.3905 3.90852C11.9909 3.59019 13.6497 3.75357 15.1571 4.37799C16.6646 5.00242 17.9531 6.05984 18.8596 7.41655C19.7661 8.77325 20.25 10.3683 20.25 12C20.2475 14.1873 19.3775 16.2843 17.8309 17.8309C16.2843 19.3775 14.1873 20.2475 12 20.25ZM9.75 10.125C9.75 10.3475 9.68402 10.565 9.56041 10.75C9.43679 10.935 9.26109 11.0792 9.05552 11.1644C8.84996 11.2495 8.62376 11.2718 8.40553 11.2284C8.1873 11.185 7.98684 11.0778 7.82951 10.9205C7.67217 10.7632 7.56503 10.5627 7.52162 10.3445C7.47821 10.1262 7.50049 9.90005 7.58564 9.69448C7.67079 9.48891 7.81498 9.31321 7.99999 9.1896C8.18499 9.06598 8.4025 9 8.625 9C8.92337 9 9.20952 9.11853 9.4205 9.3295C9.63148 9.54048 9.75 9.82663 9.75 10.125ZM16.5 10.125C16.5 10.3475 16.434 10.565 16.3104 10.75C16.1868 10.935 16.0111 11.0792 15.8055 11.1644C15.6 11.2495 15.3738 11.2718 15.1555 11.2284C14.9373 11.185 14.7368 11.0778 14.5795 10.9205C14.4222 10.7632 14.315 10.5627 14.2716 10.3445C14.2282 10.1262 14.2505 9.90005 14.3356 9.69448C14.4208 9.48891 14.565 9.31321 14.75 9.1896C14.935 9.06598 15.1525 9 15.375 9C15.6734 9 15.9595 9.11853 16.1705 9.3295C16.3815 9.54048 16.5 9.82663 16.5 10.125Z" fill="white"/>
</g>
<defs>
<clipPath id="clip0_13_674">
<rect width="24" height="24" fill="white"/>
</clipPath>
</defs>
</svg>
