<svg width="48" height="48" viewBox="0 0 48 48" fill="none" xmlns="http://www.w3.org/2000/svg">
<path d="M31.0613 19.0613L26.1206 24L31.0613 28.9387C31.2006 29.0781 31.3112 29.2436 31.3866 29.4257C31.462 29.6077 31.5008 29.8029 31.5008 30C31.5008 30.1971 31.462 30.3923 31.3866 30.5743C31.3112 30.7564 31.2006 30.9219 31.0613 31.0613C30.9219 31.2006 30.7564 31.3112 30.5744 31.3866C30.3923 31.462 30.1971 31.5008 30 31.5008C29.8029 31.5008 29.6078 31.462 29.4257 31.3866C29.2436 31.3112 29.0781 31.2006 28.9388 31.0613L24 26.1206L19.0613 31.0613C18.9219 31.2006 18.7564 31.3112 18.5744 31.3866C18.3923 31.462 18.1971 31.5008 18 31.5008C17.8029 31.5008 17.6078 31.462 17.4257 31.3866C17.2436 31.3112 17.0781 31.2006 16.9388 31.0613C16.7994 30.9219 16.6888 30.7564 16.6134 30.5743C16.538 30.3923 16.4992 30.1971 16.4992 30C16.4992 29.8029 16.538 29.6077 16.6134 29.4257C16.6888 29.2436 16.7994 29.0781 16.9388 28.9387L21.8794 24L16.9388 19.0613C16.6573 18.7798 16.4992 18.398 16.4992 18C16.4992 17.602 16.6573 17.2202 16.9388 16.9387C17.2202 16.6573 17.602 16.4992 18 16.4992C18.3981 16.4992 18.7798 16.6573 19.0613 16.9387L24 21.8794L28.9388 16.9387C29.0781 16.7994 29.2436 16.6888 29.4257 16.6134C29.6078 16.538 29.8029 16.4992 30 16.4992C30.1971 16.4992 30.3923 16.538 30.5744 16.6134C30.7564 16.6888 30.9219 16.7994 31.0613 16.9387C31.2006 17.0781 31.3112 17.2436 31.3866 17.4257C31.462 17.6077 31.5008 17.8029 31.5008 18C31.5008 18.1971 31.462 18.3923 31.3866 18.5743C31.3112 18.7564 31.2006 18.9219 31.0613 19.0613ZM43.5 24C43.5 27.8567 42.3564 31.6269 40.2137 34.8336C38.071 38.0404 35.0255 40.5397 31.4623 42.0156C27.8992 43.4916 23.9784 43.8777 20.1957 43.1253C16.4131 42.3729 12.9386 40.5157 10.2114 37.7886C7.4843 35.0615 5.62711 31.5869 4.8747 27.8043C4.12228 24.0216 4.50845 20.1008 5.98436 16.5377C7.46027 12.9745 9.95963 9.92903 13.1664 7.78634C16.3731 5.64366 20.1433 4.5 24 4.5C29.1701 4.50546 34.1268 6.56167 37.7826 10.2174C41.4383 13.8732 43.4945 18.83 43.5 24ZM40.5 24C40.5 20.7366 39.5323 17.5465 37.7193 14.8331C35.9062 12.1197 33.3293 10.0048 30.3143 8.75599C27.2993 7.50714 23.9817 7.18039 20.781 7.81704C17.5803 8.4537 14.6403 10.0252 12.3327 12.3327C10.0252 14.6403 8.45371 17.5803 7.81705 20.781C7.1804 23.9817 7.50715 27.2993 8.756 30.3143C10.0048 33.3293 12.1197 35.9062 14.8331 37.7192C17.5465 39.5323 20.7366 40.5 24 40.5C28.3746 40.495 32.5685 38.7551 35.6618 35.6618C38.7551 32.5685 40.495 28.3745 40.5 24Z" fill="white"/>
</svg>
